<svg xmlns="http://www.w3.org/2000/svg" xmlns:xlink="http://www.w3.org/1999/xlink" width="500" zoomAndPan="magnify" viewBox="0 0 375 374.999991" height="500" preserveAspectRatio="xMidYMid meet" version="1.0"><defs><g/><clipPath id="9c9e99e4ef"><path d="M 18.757812 129.089844 L 356.242188 129.089844 L 356.242188 234.089844 L 18.757812 234.089844 Z M 18.757812 129.089844 " clip-rule="nonzero"/></clipPath><clipPath id="dc4eb1d41b"><path d="M 57.050781 221.089844 L 318 221.089844 L 318 245.839844 L 57.050781 245.839844 Z M 57.050781 221.089844 " clip-rule="nonzero"/></clipPath></defs><rect x="-37.5" width="450" fill="#ffffff" y="-37.499999" height="449.999989" fill-opacity="1"/><rect x="-37.5" width="450" fill="#ffffff" y="-37.499999" height="449.999989" fill-opacity="1"/><rect x="-37.5" width="450" fill="#fbfaf9" y="-37.499999" height="449.999989" fill-opacity="1"/><g clip-path="url(#9c9e99e4ef)"><path stroke-linecap="butt" transform="matrix(0.75, 0, 0, 0.751342, 18.759267, 129.09087)" fill="none" stroke-linejoin="miter" d="M -0.00193873 -0.00136579 L 449.977257 -0.00136579 L 449.977257 139.748641 L -0.00193873 139.748641 L -0.00193873 -0.00136579 " stroke="#060606" stroke-width="2" stroke-opacity="1" stroke-miterlimit="4"/></g><g fill="#060606" fill-opacity="1"><g transform="translate(31.228644, 189.88588)"><g><path d="M 29.90625 -26.828125 C 29.03125 -26.773438 28.394531 -26.671875 28 -26.515625 C 27.613281 -26.359375 27.347656 -26.054688 27.203125 -25.609375 C 27.054688 -25.171875 26.984375 -24.460938 26.984375 -23.484375 L 26.984375 -4.140625 C 26.984375 -3.148438 27.054688 -2.429688 27.203125 -1.984375 C 27.347656 -1.546875 27.613281 -1.25 28 -1.09375 C 28.394531 -0.9375 29.03125 -0.832031 29.90625 -0.78125 L 29.90625 0 C 28.632812 -0.0703125 26.660156 -0.109375 23.984375 -0.109375 C 21.359375 -0.109375 19.316406 -0.0703125 17.859375 0 L 17.859375 -0.78125 C 18.722656 -0.832031 19.351562 -0.9375 19.75 -1.09375 C 20.15625 -1.25 20.425781 -1.546875 20.5625 -1.984375 C 20.707031 -2.429688 20.78125 -3.148438 20.78125 -4.140625 L 20.78125 -13.5 L 10.453125 -13.5 L 10.453125 -4.140625 C 10.453125 -3.148438 10.519531 -2.429688 10.65625 -1.984375 C 10.800781 -1.546875 11.066406 -1.25 11.453125 -1.09375 C 11.847656 -0.9375 12.488281 -0.832031 13.375 -0.78125 L 13.375 0 C 11.96875 -0.0703125 10.003906 -0.109375 7.484375 -0.109375 C 4.703125 -0.109375 2.648438 -0.0703125 1.328125 0 L 1.328125 -0.78125 C 2.179688 -0.832031 2.8125 -0.9375 3.21875 -1.09375 C 3.625 -1.25 3.894531 -1.546875 4.03125 -1.984375 C 4.175781 -2.429688 4.25 -3.148438 4.25 -4.140625 L 4.25 -23.484375 C 4.25 -24.460938 4.175781 -25.171875 4.03125 -25.609375 C 3.894531 -26.054688 3.625 -26.359375 3.21875 -26.515625 C 2.8125 -26.671875 2.179688 -26.773438 1.328125 -26.828125 L 1.328125 -27.609375 C 2.648438 -27.535156 4.703125 -27.5 7.484375 -27.5 C 10.003906 -27.5 11.96875 -27.535156 13.375 -27.609375 L 13.375 -26.828125 C 12.488281 -26.773438 11.847656 -26.671875 11.453125 -26.515625 C 11.066406 -26.359375 10.800781 -26.054688 10.65625 -25.609375 C 10.519531 -25.171875 10.453125 -24.460938 10.453125 -23.484375 L 10.453125 -14.28125 L 20.78125 -14.28125 L 20.78125 -23.484375 C 20.78125 -24.460938 20.707031 -25.171875 20.5625 -25.609375 C 20.425781 -26.054688 20.15625 -26.359375 19.75 -26.515625 C 19.351562 -26.671875 18.722656 -26.773438 17.859375 -26.828125 L 17.859375 -27.609375 C 19.316406 -27.535156 21.359375 -27.5 23.984375 -27.5 C 26.660156 -27.5 28.632812 -27.535156 29.90625 -27.609375 Z M 29.90625 -26.828125 "/></g></g></g><g fill="#060606" fill-opacity="1"><g transform="translate(61.258665, 189.88588)"><g><path d="M 20.359375 -4.25 C 20.359375 -3.050781 20.546875 -2.175781 20.921875 -1.625 C 21.296875 -1.082031 21.941406 -0.8125 22.859375 -0.8125 L 22.859375 0 C 22.046875 -0.0703125 21.238281 -0.109375 20.4375 -0.109375 C 18.175781 -0.109375 16.273438 0.0664062 14.734375 0.421875 L 14.734375 -3.078125 C 13.546875 -0.660156 11.457031 0.546875 8.46875 0.546875 C 6.507812 0.546875 5.09375 0.0390625 4.21875 -0.96875 C 3.800781 -1.46875 3.492188 -2.113281 3.296875 -2.90625 C 3.097656 -3.695312 3 -4.742188 3 -6.046875 L 3 -15.90625 C 3 -17.101562 2.8125 -17.972656 2.4375 -18.515625 C 2.0625 -19.066406 1.414062 -19.34375 0.5 -19.34375 L 0.5 -20.15625 C 1.3125 -20.082031 2.117188 -20.046875 2.921875 -20.046875 C 5.179688 -20.046875 7.082031 -20.226562 8.625 -20.59375 L 8.625 -4.453125 C 8.625 -3.359375 8.785156 -2.535156 9.109375 -1.984375 C 9.429688 -1.441406 10.046875 -1.171875 10.953125 -1.171875 C 11.992188 -1.171875 12.882812 -1.601562 13.625 -2.46875 C 14.363281 -3.34375 14.734375 -4.414062 14.734375 -5.6875 L 14.734375 -15.90625 C 14.734375 -17.101562 14.546875 -17.972656 14.171875 -18.515625 C 13.796875 -19.066406 13.15625 -19.34375 12.25 -19.34375 L 12.25 -20.15625 C 13.082031 -20.082031 13.882812 -20.046875 14.65625 -20.046875 C 16.925781 -20.046875 18.828125 -20.226562 20.359375 -20.59375 Z M 20.359375 -4.25 "/></g></g></g><g fill="#060606" fill-opacity="1"><g transform="translate(83.722678, 189.88588)"><g><path d="M 32.296875 -3.625 C 32.296875 -2.5625 32.484375 -1.828125 32.859375 -1.421875 C 33.234375 -1.015625 33.875 -0.8125 34.78125 -0.8125 L 34.78125 0 C 32.1875 -0.101562 30.472656 -0.15625 29.640625 -0.15625 C 28.910156 -0.15625 27.296875 -0.101562 24.796875 0 L 24.796875 -0.8125 C 25.503906 -0.8125 25.992188 -1.003906 26.265625 -1.390625 C 26.535156 -1.785156 26.671875 -2.53125 26.671875 -3.625 L 26.671875 -15.75 C 26.671875 -16.84375 26.507812 -17.65625 26.1875 -18.1875 C 25.863281 -18.726562 25.25 -19 24.34375 -19 C 23.375 -19 22.53125 -18.59375 21.8125 -17.78125 C 21.101562 -16.976562 20.679688 -15.988281 20.546875 -14.8125 L 20.546875 -3.625 C 20.546875 -2.5625 20.707031 -1.828125 21.03125 -1.421875 C 21.363281 -1.015625 21.957031 -0.8125 22.8125 -0.8125 L 22.8125 0 C 20.320312 -0.101562 18.6875 -0.15625 17.90625 -0.15625 C 17.175781 -0.15625 15.5625 -0.101562 13.0625 0 L 13.0625 -0.8125 C 13.769531 -0.8125 14.257812 -1.015625 14.53125 -1.421875 C 14.800781 -1.828125 14.9375 -2.5625 14.9375 -3.625 L 14.9375 -15.75 C 14.9375 -16.84375 14.789062 -17.65625 14.5 -18.1875 C 14.21875 -18.726562 13.660156 -19 12.828125 -19 C 11.785156 -19 10.894531 -18.5625 10.15625 -17.6875 C 9.414062 -16.8125 9.046875 -15.738281 9.046875 -14.46875 L 9.046875 -3.625 C 9.046875 -2.5625 9.179688 -1.828125 9.453125 -1.421875 C 9.722656 -1.015625 10.210938 -0.8125 10.921875 -0.8125 L 10.921875 0 C 8.628906 -0.101562 7.09375 -0.15625 6.3125 -0.15625 C 5.53125 -0.15625 3.738281 -0.101562 0.9375 0 L 0.9375 -0.8125 C 1.875 -0.8125 2.523438 -1.015625 2.890625 -1.421875 C 3.253906 -1.828125 3.4375 -2.5625 3.4375 -3.625 L 3.4375 -15.90625 C 3.4375 -17.101562 3.253906 -17.972656 2.890625 -18.515625 C 2.523438 -19.066406 1.875 -19.34375 0.9375 -19.34375 L 0.9375 -20.15625 C 1.769531 -20.082031 2.578125 -20.046875 3.359375 -20.046875 C 5.671875 -20.046875 7.566406 -20.226562 9.046875 -20.59375 L 9.046875 -17.078125 C 10.191406 -19.492188 12.207031 -20.703125 15.09375 -20.703125 C 17.070312 -20.703125 18.503906 -20.195312 19.390625 -19.1875 C 19.878906 -18.664062 20.203125 -17.882812 20.359375 -16.84375 C 21.035156 -18.25 21.914062 -19.242188 23 -19.828125 C 24.09375 -20.410156 25.367188 -20.703125 26.828125 -20.703125 C 28.804688 -20.703125 30.238281 -20.195312 31.125 -19.1875 C 31.539062 -18.71875 31.835938 -18.078125 32.015625 -17.265625 C 32.203125 -16.460938 32.296875 -15.414062 32.296875 -14.125 Z M 32.296875 -3.625 "/></g></g></g><g fill="#060606" fill-opacity="1"><g transform="translate(117.847704, 189.88588)"><g><path d="M 6.078125 0.265625 C 4.421875 0.265625 3.179688 -0.160156 2.359375 -1.015625 C 1.535156 -1.867188 1.125 -3 1.125 -4.40625 C 1.125 -5.570312 1.429688 -6.539062 2.046875 -7.3125 C 2.660156 -8.082031 3.398438 -8.675781 4.265625 -9.09375 C 5.140625 -9.507812 6.253906 -9.945312 7.609375 -10.40625 C 9.035156 -10.90625 10.078125 -11.351562 10.734375 -11.75 C 11.398438 -12.15625 11.734375 -12.710938 11.734375 -13.421875 L 11.734375 -16.453125 C 11.734375 -17.546875 11.476562 -18.394531 10.96875 -19 C 10.46875 -19.613281 9.6875 -19.921875 8.625 -19.921875 C 7.375 -19.921875 6.421875 -19.613281 5.765625 -19 C 6.492188 -18.738281 7.0625 -18.347656 7.46875 -17.828125 C 7.875 -17.304688 8.078125 -16.691406 8.078125 -15.984375 C 8.078125 -15.097656 7.773438 -14.394531 7.171875 -13.875 C 6.578125 -13.363281 5.847656 -13.109375 4.984375 -13.109375 C 4.078125 -13.109375 3.375 -13.390625 2.875 -13.953125 C 2.382812 -14.523438 2.140625 -15.242188 2.140625 -16.109375 C 2.140625 -16.835938 2.316406 -17.453125 2.671875 -17.953125 C 3.023438 -18.460938 3.566406 -18.941406 4.296875 -19.390625 C 4.992188 -19.796875 5.851562 -20.113281 6.875 -20.34375 C 7.90625 -20.582031 9.03125 -20.703125 10.25 -20.703125 C 11.53125 -20.703125 12.632812 -20.570312 13.5625 -20.3125 C 14.5 -20.050781 15.28125 -19.613281 15.90625 -19 C 16.476562 -18.425781 16.863281 -17.722656 17.0625 -16.890625 C 17.257812 -16.054688 17.359375 -14.925781 17.359375 -13.5 L 17.359375 -2.890625 C 17.359375 -2.265625 17.414062 -1.820312 17.53125 -1.5625 C 17.644531 -1.300781 17.875 -1.171875 18.21875 -1.171875 C 18.601562 -1.171875 19.066406 -1.390625 19.609375 -1.828125 L 20 -1.171875 C 18.832031 -0.210938 17.40625 0.265625 15.71875 0.265625 C 14.289062 0.265625 13.289062 -0.015625 12.71875 -0.578125 C 12.144531 -1.148438 11.84375 -1.921875 11.8125 -2.890625 C 10.507812 -0.785156 8.597656 0.265625 6.078125 0.265625 Z M 9.09375 -2.21875 C 10.101562 -2.21875 10.984375 -2.753906 11.734375 -3.828125 L 11.734375 -11.8125 C 11.421875 -11.289062 10.757812 -10.71875 9.75 -10.09375 C 8.738281 -9.445312 7.972656 -8.796875 7.453125 -8.140625 C 6.929688 -7.492188 6.671875 -6.5625 6.671875 -5.34375 C 6.671875 -4.28125 6.890625 -3.492188 7.328125 -2.984375 C 7.773438 -2.472656 8.363281 -2.21875 9.09375 -2.21875 Z M 9.09375 -2.21875 "/></g></g></g><g fill="#060606" fill-opacity="1"><g transform="translate(136.879714, 189.88588)"><g><path d="M 15.4375 -20.703125 C 17.414062 -20.703125 18.847656 -20.195312 19.734375 -19.1875 C 20.171875 -18.695312 20.476562 -18.0625 20.65625 -17.28125 C 20.84375 -16.5 20.9375 -15.445312 20.9375 -14.125 L 20.9375 -3.625 C 20.9375 -2.5625 21.125 -1.828125 21.5 -1.421875 C 21.882812 -1.015625 22.53125 -0.8125 23.4375 -0.8125 L 23.4375 0 C 20.832031 -0.101562 19.117188 -0.15625 18.296875 -0.15625 C 17.515625 -0.15625 15.820312 -0.101562 13.21875 0 L 13.21875 -0.8125 C 14 -0.8125 14.546875 -1.015625 14.859375 -1.421875 C 15.171875 -1.828125 15.328125 -2.5625 15.328125 -3.625 L 15.328125 -15.75 C 15.328125 -16.820312 15.148438 -17.628906 14.796875 -18.171875 C 14.453125 -18.722656 13.820312 -19 12.90625 -19 C 11.84375 -19 10.929688 -18.5625 10.171875 -17.6875 C 9.421875 -16.8125 9.046875 -15.738281 9.046875 -14.46875 L 9.046875 -3.625 C 9.046875 -2.5625 9.203125 -1.828125 9.515625 -1.421875 C 9.828125 -1.015625 10.375 -0.8125 11.15625 -0.8125 L 11.15625 0 C 8.757812 -0.101562 7.144531 -0.15625 6.3125 -0.15625 C 5.53125 -0.15625 3.738281 -0.101562 0.9375 0 L 0.9375 -0.8125 C 1.875 -0.8125 2.523438 -1.015625 2.890625 -1.421875 C 3.253906 -1.828125 3.4375 -2.5625 3.4375 -3.625 L 3.4375 -15.90625 C 3.4375 -17.101562 3.253906 -17.972656 2.890625 -18.515625 C 2.523438 -19.066406 1.875 -19.34375 0.9375 -19.34375 L 0.9375 -20.15625 C 1.769531 -20.082031 2.578125 -20.046875 3.359375 -20.046875 C 5.671875 -20.046875 7.566406 -20.226562 9.046875 -20.59375 L 9.046875 -17.078125 C 10.210938 -19.492188 12.34375 -20.703125 15.4375 -20.703125 Z M 15.4375 -20.703125 "/></g></g></g><g fill="#060606" fill-opacity="1"><g transform="translate(159.655721, 189.88588)"><g/></g></g><g fill="#060606" fill-opacity="1"><g transform="translate(167.57272, 189.88588)"><g><path d="M 27.765625 -1.71875 C 27.066406 -0.90625 26.3125 -0.328125 25.5 0.015625 C 24.695312 0.367188 23.722656 0.546875 22.578125 0.546875 C 21.066406 0.546875 19.875 0.226562 19 -0.40625 C 18.132812 -1.039062 17.570312 -2.128906 17.3125 -3.671875 L 16.609375 -7.5625 C 16.273438 -9.457031 15.863281 -10.851562 15.375 -11.75 C 14.894531 -12.65625 14.097656 -13.109375 12.984375 -13.109375 L 10.453125 -13.109375 L 10.453125 -4.140625 C 10.453125 -3.148438 10.519531 -2.429688 10.65625 -1.984375 C 10.800781 -1.546875 11.066406 -1.25 11.453125 -1.09375 C 11.847656 -0.9375 12.488281 -0.832031 13.375 -0.78125 L 13.375 0 C 11.96875 -0.0703125 10.003906 -0.109375 7.484375 -0.109375 C 4.703125 -0.109375 2.648438 -0.0703125 1.328125 0 L 1.328125 -0.78125 C 2.179688 -0.832031 2.8125 -0.9375 3.21875 -1.09375 C 3.625 -1.25 3.894531 -1.546875 4.03125 -1.984375 C 4.175781 -2.429688 4.25 -3.148438 4.25 -4.140625 L 4.25 -23.484375 C 4.25 -24.460938 4.175781 -25.171875 4.03125 -25.609375 C 3.894531 -26.054688 3.625 -26.359375 3.21875 -26.515625 C 2.8125 -26.671875 2.179688 -26.773438 1.328125 -26.828125 L 1.328125 -27.609375 C 2.648438 -27.535156 4.625 -27.5 7.25 -27.5 L 11.578125 -27.53125 C 12.097656 -27.5625 12.695312 -27.578125 13.375 -27.578125 C 16.96875 -27.578125 19.664062 -26.988281 21.46875 -25.8125 C 23.28125 -24.644531 24.1875 -22.96875 24.1875 -20.78125 C 24.1875 -18.9375 23.507812 -17.3125 22.15625 -15.90625 C 20.800781 -14.507812 18.5625 -13.628906 15.4375 -13.265625 C 17.78125 -13.054688 19.523438 -12.546875 20.671875 -11.734375 C 21.816406 -10.929688 22.554688 -9.722656 22.890625 -8.109375 L 23.796875 -4.09375 C 24.003906 -3.050781 24.242188 -2.320312 24.515625 -1.90625 C 24.785156 -1.488281 25.164062 -1.28125 25.65625 -1.28125 C 25.96875 -1.3125 26.234375 -1.390625 26.453125 -1.515625 C 26.679688 -1.648438 26.9375 -1.875 27.21875 -2.1875 Z M 12.875 -26.828125 C 12.164062 -26.828125 11.648438 -26.734375 11.328125 -26.546875 C 11.003906 -26.367188 10.773438 -26.046875 10.640625 -25.578125 C 10.515625 -25.109375 10.453125 -24.410156 10.453125 -23.484375 L 10.453125 -13.890625 L 12.125 -13.890625 C 14.257812 -13.890625 15.722656 -14.453125 16.515625 -15.578125 C 17.304688 -16.710938 17.703125 -18.304688 17.703125 -20.359375 C 17.703125 -22.492188 17.320312 -24.101562 16.5625 -25.1875 C 15.8125 -26.28125 14.582031 -26.828125 12.875 -26.828125 Z M 12.875 -26.828125 "/></g></g></g><g fill="#060606" fill-opacity="1"><g transform="translate(193.39075, 189.88588)"><g><path d="M 12.40625 -2.65625 C 14.53125 -2.65625 16.242188 -3.691406 17.546875 -5.765625 L 18.25 -5.53125 C 17.726562 -3.84375 16.796875 -2.40625 15.453125 -1.21875 C 14.117188 -0.0390625 12.453125 0.546875 10.453125 0.546875 C 7.691406 0.546875 5.5 -0.328125 3.875 -2.078125 C 2.25 -3.835938 1.4375 -6.429688 1.4375 -9.859375 C 1.4375 -13.367188 2.304688 -16.050781 4.046875 -17.90625 C 5.796875 -19.769531 8.113281 -20.703125 11 -20.703125 C 15.882812 -20.703125 18.328125 -17.816406 18.328125 -12.046875 L 7.375 -12.046875 C 7.34375 -11.660156 7.328125 -11.050781 7.328125 -10.21875 C 7.328125 -8.5 7.566406 -7.066406 8.046875 -5.921875 C 8.535156 -4.785156 9.160156 -3.957031 9.921875 -3.4375 C 10.691406 -2.914062 11.519531 -2.65625 12.40625 -2.65625 Z M 10.765625 -19.890625 C 9.828125 -19.890625 9.050781 -19.3125 8.4375 -18.15625 C 7.832031 -17 7.453125 -15.210938 7.296875 -12.796875 L 13.421875 -12.796875 C 13.472656 -14.847656 13.269531 -16.539062 12.8125 -17.875 C 12.351562 -19.21875 11.671875 -19.890625 10.765625 -19.890625 Z M 10.765625 -19.890625 "/></g></g></g><g fill="#060606" fill-opacity="1"><g transform="translate(211.876756, 189.88588)"><g><path d="M 8.65625 -20.703125 C 9.644531 -20.703125 10.554688 -20.578125 11.390625 -20.328125 C 12.222656 -20.085938 12.859375 -19.8125 13.296875 -19.5 C 13.554688 -19.320312 13.789062 -19.234375 14 -19.234375 C 14.238281 -19.234375 14.441406 -19.351562 14.609375 -19.59375 C 14.773438 -19.84375 14.882812 -20.203125 14.9375 -20.671875 L 15.75 -20.671875 C 15.644531 -19.347656 15.59375 -17.0625 15.59375 -13.8125 L 14.78125 -13.8125 C 14.550781 -15.519531 14.035156 -16.953125 13.234375 -18.109375 C 12.441406 -19.265625 11.289062 -19.84375 9.78125 -19.84375 C 9.007812 -19.84375 8.367188 -19.625 7.859375 -19.1875 C 7.347656 -18.75 7.09375 -18.140625 7.09375 -17.359375 C 7.09375 -16.472656 7.390625 -15.710938 7.984375 -15.078125 C 8.585938 -14.441406 9.523438 -13.664062 10.796875 -12.75 L 11.9375 -11.9375 C 13.519531 -10.738281 14.6875 -9.671875 15.4375 -8.734375 C 16.195312 -7.796875 16.578125 -6.625 16.578125 -5.21875 C 16.578125 -4.082031 16.242188 -3.070312 15.578125 -2.1875 C 14.921875 -1.300781 14.03125 -0.625 12.90625 -0.15625 C 11.789062 0.3125 10.554688 0.546875 9.203125 0.546875 C 7.773438 0.546875 6.550781 0.273438 5.53125 -0.265625 C 4.707031 -0.679688 4.113281 -0.957031 3.75 -1.09375 C 3.488281 -1.164062 3.257812 -1.078125 3.0625 -0.828125 C 2.863281 -0.585938 2.710938 -0.222656 2.609375 0.265625 L 1.796875 0.265625 C 1.898438 -1.210938 1.953125 -3.8125 1.953125 -7.53125 L 2.765625 -7.53125 C 3.285156 -2.738281 5.039062 -0.34375 8.03125 -0.34375 C 8.789062 -0.34375 9.4375 -0.570312 9.96875 -1.03125 C 10.5 -1.488281 10.765625 -2.1875 10.765625 -3.125 C 10.765625 -3.851562 10.597656 -4.5 10.265625 -5.0625 C 9.941406 -5.632812 9.535156 -6.140625 9.046875 -6.578125 C 8.554688 -7.023438 7.816406 -7.640625 6.828125 -8.421875 C 5.648438 -9.359375 4.753906 -10.113281 4.140625 -10.6875 C 3.535156 -11.257812 3.019531 -11.9375 2.59375 -12.71875 C 2.164062 -13.5 1.953125 -14.367188 1.953125 -15.328125 C 1.953125 -16.992188 2.597656 -18.304688 3.890625 -19.265625 C 5.191406 -20.222656 6.78125 -20.703125 8.65625 -20.703125 Z M 8.65625 -20.703125 "/></g></g></g><g fill="#060606" fill-opacity="1"><g transform="translate(228.72477, 189.88588)"><g><path d="M 11 -20.703125 C 13.988281 -20.703125 16.328125 -19.847656 18.015625 -18.140625 C 19.703125 -16.441406 20.546875 -13.75 20.546875 -10.0625 C 20.546875 -6.375 19.703125 -3.679688 18.015625 -1.984375 C 16.328125 -0.296875 13.988281 0.546875 11 0.546875 C 8.03125 0.546875 5.691406 -0.296875 3.984375 -1.984375 C 2.285156 -3.679688 1.4375 -6.375 1.4375 -10.0625 C 1.4375 -13.75 2.285156 -16.441406 3.984375 -18.140625 C 5.691406 -19.847656 8.03125 -20.703125 11 -20.703125 Z M 11 -19.921875 C 9.882812 -19.921875 8.992188 -19.109375 8.328125 -17.484375 C 7.660156 -15.859375 7.328125 -13.382812 7.328125 -10.0625 C 7.328125 -6.726562 7.660156 -4.253906 8.328125 -2.640625 C 8.992188 -1.035156 9.882812 -0.234375 11 -0.234375 C 12.144531 -0.234375 13.039062 -1.03125 13.6875 -2.625 C 14.332031 -4.226562 14.65625 -6.707031 14.65625 -10.0625 C 14.65625 -13.414062 14.320312 -15.894531 13.65625 -17.5 C 13 -19.113281 12.113281 -19.921875 11 -19.921875 Z M 11 -19.921875 "/></g></g></g><g fill="#060606" fill-opacity="1"><g transform="translate(249.589774, 189.88588)"><g><path d="M 20.359375 -4.25 C 20.359375 -3.050781 20.546875 -2.175781 20.921875 -1.625 C 21.296875 -1.082031 21.941406 -0.8125 22.859375 -0.8125 L 22.859375 0 C 22.046875 -0.0703125 21.238281 -0.109375 20.4375 -0.109375 C 18.175781 -0.109375 16.273438 0.0664062 14.734375 0.421875 L 14.734375 -3.078125 C 13.546875 -0.660156 11.457031 0.546875 8.46875 0.546875 C 6.507812 0.546875 5.09375 0.0390625 4.21875 -0.96875 C 3.800781 -1.46875 3.492188 -2.113281 3.296875 -2.90625 C 3.097656 -3.695312 3 -4.742188 3 -6.046875 L 3 -15.90625 C 3 -17.101562 2.8125 -17.972656 2.4375 -18.515625 C 2.0625 -19.066406 1.414062 -19.34375 0.5 -19.34375 L 0.5 -20.15625 C 1.3125 -20.082031 2.117188 -20.046875 2.921875 -20.046875 C 5.179688 -20.046875 7.082031 -20.226562 8.625 -20.59375 L 8.625 -4.453125 C 8.625 -3.359375 8.785156 -2.535156 9.109375 -1.984375 C 9.429688 -1.441406 10.046875 -1.171875 10.953125 -1.171875 C 11.992188 -1.171875 12.882812 -1.601562 13.625 -2.46875 C 14.363281 -3.34375 14.734375 -4.414062 14.734375 -5.6875 L 14.734375 -15.90625 C 14.734375 -17.101562 14.546875 -17.972656 14.171875 -18.515625 C 13.796875 -19.066406 13.15625 -19.34375 12.25 -19.34375 L 12.25 -20.15625 C 13.082031 -20.082031 13.882812 -20.046875 14.65625 -20.046875 C 16.925781 -20.046875 18.828125 -20.226562 20.359375 -20.59375 Z M 20.359375 -4.25 "/></g></g></g><g fill="#060606" fill-opacity="1"><g transform="translate(272.053792, 189.88588)"><g><path d="M 14.359375 -20.703125 C 15.523438 -20.703125 16.40625 -20.351562 17 -19.65625 C 17.601562 -18.957031 17.90625 -18.113281 17.90625 -17.125 C 17.90625 -16.15625 17.625 -15.363281 17.0625 -14.75 C 16.5 -14.144531 15.765625 -13.84375 14.859375 -13.84375 C 13.972656 -13.84375 13.269531 -14.066406 12.75 -14.515625 C 12.226562 -14.972656 11.96875 -15.582031 11.96875 -16.34375 C 11.96875 -17.59375 12.539062 -18.609375 13.6875 -19.390625 C 13.582031 -19.410156 13.425781 -19.421875 13.21875 -19.421875 C 12.957031 -19.421875 12.75 -19.394531 12.59375 -19.34375 C 11.601562 -19.1875 10.765625 -18.585938 10.078125 -17.546875 C 9.390625 -16.503906 9.046875 -15.441406 9.046875 -14.359375 L 9.046875 -4.015625 C 9.046875 -2.816406 9.335938 -1.984375 9.921875 -1.515625 C 10.503906 -1.046875 11.4375 -0.8125 12.71875 -0.8125 L 12.71875 0 C 12.351562 0 12.050781 -0.0078125 11.8125 -0.03125 C 9.164062 -0.113281 7.398438 -0.15625 6.515625 -0.15625 C 5.804688 -0.15625 4.207031 -0.113281 1.71875 -0.03125 C 1.507812 -0.0078125 1.25 0 0.9375 0 L 0.9375 -0.8125 C 1.875 -0.8125 2.523438 -1.015625 2.890625 -1.421875 C 3.253906 -1.828125 3.4375 -2.5625 3.4375 -3.625 L 3.4375 -15.90625 C 3.4375 -17.101562 3.253906 -17.972656 2.890625 -18.515625 C 2.523438 -19.066406 1.875 -19.34375 0.9375 -19.34375 L 0.9375 -20.15625 C 1.769531 -20.082031 2.578125 -20.046875 3.359375 -20.046875 C 5.671875 -20.046875 7.566406 -20.226562 9.046875 -20.59375 L 9.046875 -16.96875 C 9.535156 -18.082031 10.25 -18.984375 11.1875 -19.671875 C 12.125 -20.359375 13.179688 -20.703125 14.359375 -20.703125 Z M 14.359375 -20.703125 "/></g></g></g><g fill="#060606" fill-opacity="1"><g transform="translate(289.096814, 189.88588)"><g><path d="M 11.078125 -20.703125 C 12.035156 -20.703125 12.941406 -20.597656 13.796875 -20.390625 C 14.660156 -20.179688 15.378906 -19.894531 15.953125 -19.53125 C 16.628906 -19.125 17.15625 -18.597656 17.53125 -17.953125 C 17.90625 -17.316406 18.09375 -16.625 18.09375 -15.875 C 18.09375 -14.96875 17.804688 -14.21875 17.234375 -13.625 C 16.660156 -13.039062 15.921875 -12.75 15.015625 -12.75 C 14.109375 -12.75 13.378906 -13.007812 12.828125 -13.53125 C 12.285156 -14.050781 12.015625 -14.753906 12.015625 -15.640625 C 12.015625 -16.421875 12.257812 -17.097656 12.75 -17.671875 C 13.25 -18.242188 13.863281 -18.632812 14.59375 -18.84375 C 14.382812 -19.125 14.0625 -19.347656 13.625 -19.515625 C 13.195312 -19.679688 12.738281 -19.765625 12.25 -19.765625 C 10.6875 -19.765625 9.46875 -18.910156 8.59375 -17.203125 C 7.726562 -15.503906 7.296875 -13.28125 7.296875 -10.53125 C 7.296875 -7.75 7.785156 -5.742188 8.765625 -4.515625 C 9.753906 -3.296875 10.992188 -2.6875 12.484375 -2.6875 C 13.367188 -2.6875 14.257812 -2.921875 15.15625 -3.390625 C 16.050781 -3.859375 16.863281 -4.675781 17.59375 -5.84375 L 18.25 -5.609375 C 17.726562 -3.921875 16.816406 -2.472656 15.515625 -1.265625 C 14.222656 -0.0546875 12.546875 0.546875 10.484375 0.546875 C 7.804688 0.546875 5.625 -0.335938 3.9375 -2.109375 C 2.25 -3.878906 1.40625 -6.503906 1.40625 -9.984375 C 1.40625 -12.273438 1.820312 -14.222656 2.65625 -15.828125 C 3.488281 -17.441406 4.628906 -18.65625 6.078125 -19.46875 C 7.535156 -20.289062 9.203125 -20.703125 11.078125 -20.703125 Z M 11.078125 -20.703125 "/></g></g></g><g fill="#060606" fill-opacity="1"><g transform="translate(307.270831, 189.88588)"><g><path d="M 12.40625 -2.65625 C 14.53125 -2.65625 16.242188 -3.691406 17.546875 -5.765625 L 18.25 -5.53125 C 17.726562 -3.84375 16.796875 -2.40625 15.453125 -1.21875 C 14.117188 -0.0390625 12.453125 0.546875 10.453125 0.546875 C 7.691406 0.546875 5.5 -0.328125 3.875 -2.078125 C 2.25 -3.835938 1.4375 -6.429688 1.4375 -9.859375 C 1.4375 -13.367188 2.304688 -16.050781 4.046875 -17.90625 C 5.796875 -19.769531 8.113281 -20.703125 11 -20.703125 C 15.882812 -20.703125 18.328125 -17.816406 18.328125 -12.046875 L 7.375 -12.046875 C 7.34375 -11.660156 7.328125 -11.050781 7.328125 -10.21875 C 7.328125 -8.5 7.566406 -7.066406 8.046875 -5.921875 C 8.535156 -4.785156 9.160156 -3.957031 9.921875 -3.4375 C 10.691406 -2.914062 11.519531 -2.65625 12.40625 -2.65625 Z M 10.765625 -19.890625 C 9.828125 -19.890625 9.050781 -19.3125 8.4375 -18.15625 C 7.832031 -17 7.453125 -15.210938 7.296875 -12.796875 L 13.421875 -12.796875 C 13.472656 -14.847656 13.269531 -16.539062 12.8125 -17.875 C 12.351562 -19.21875 11.671875 -19.890625 10.765625 -19.890625 Z M 10.765625 -19.890625 "/></g></g></g><g fill="#060606" fill-opacity="1"><g transform="translate(325.756837, 189.88588)"><g><path d="M 8.65625 -20.703125 C 9.644531 -20.703125 10.554688 -20.578125 11.390625 -20.328125 C 12.222656 -20.085938 12.859375 -19.8125 13.296875 -19.5 C 13.554688 -19.320312 13.789062 -19.234375 14 -19.234375 C 14.238281 -19.234375 14.441406 -19.351562 14.609375 -19.59375 C 14.773438 -19.84375 14.882812 -20.203125 14.9375 -20.671875 L 15.75 -20.671875 C 15.644531 -19.347656 15.59375 -17.0625 15.59375 -13.8125 L 14.78125 -13.8125 C 14.550781 -15.519531 14.035156 -16.953125 13.234375 -18.109375 C 12.441406 -19.265625 11.289062 -19.84375 9.78125 -19.84375 C 9.007812 -19.84375 8.367188 -19.625 7.859375 -19.1875 C 7.347656 -18.75 7.09375 -18.140625 7.09375 -17.359375 C 7.09375 -16.472656 7.390625 -15.710938 7.984375 -15.078125 C 8.585938 -14.441406 9.523438 -13.664062 10.796875 -12.75 L 11.9375 -11.9375 C 13.519531 -10.738281 14.6875 -9.671875 15.4375 -8.734375 C 16.195312 -7.796875 16.578125 -6.625 16.578125 -5.21875 C 16.578125 -4.082031 16.242188 -3.070312 15.578125 -2.1875 C 14.921875 -1.300781 14.03125 -0.625 12.90625 -0.15625 C 11.789062 0.3125 10.554688 0.546875 9.203125 0.546875 C 7.773438 0.546875 6.550781 0.273438 5.53125 -0.265625 C 4.707031 -0.679688 4.113281 -0.957031 3.75 -1.09375 C 3.488281 -1.164062 3.257812 -1.078125 3.0625 -0.828125 C 2.863281 -0.585938 2.710938 -0.222656 2.609375 0.265625 L 1.796875 0.265625 C 1.898438 -1.210938 1.953125 -3.8125 1.953125 -7.53125 L 2.765625 -7.53125 C 3.285156 -2.738281 5.039062 -0.34375 8.03125 -0.34375 C 8.789062 -0.34375 9.4375 -0.570312 9.96875 -1.03125 C 10.5 -1.488281 10.765625 -2.1875 10.765625 -3.125 C 10.765625 -3.851562 10.597656 -4.5 10.265625 -5.0625 C 9.941406 -5.632812 9.535156 -6.140625 9.046875 -6.578125 C 8.554688 -7.023438 7.816406 -7.640625 6.828125 -8.421875 C 5.648438 -9.359375 4.753906 -10.113281 4.140625 -10.6875 C 3.535156 -11.257812 3.019531 -11.9375 2.59375 -12.71875 C 2.164062 -13.5 1.953125 -14.367188 1.953125 -15.328125 C 1.953125 -16.992188 2.597656 -18.304688 3.890625 -19.265625 C 5.191406 -20.222656 6.78125 -20.703125 8.65625 -20.703125 Z M 8.65625 -20.703125 "/></g></g></g><g clip-path="url(#dc4eb1d41b)"><path fill="#fbfaf9" d="M 57.097656 221.089844 L 318 221.089844 L 318 245.839844 L 57.097656 245.839844 L 57.097656 221.089844 " fill-opacity="1" fill-rule="nonzero"/></g><g fill="#060606" fill-opacity="1"><g transform="translate(115.925768, 238.444247)"><g><path d="M 5.15625 -9.015625 C 5.789062 -9.015625 6.410156 -8.890625 7.015625 -8.640625 C 7.617188 -8.398438 8.132812 -8.0625 8.5625 -7.625 L 7.6875 -6.53125 C 7.363281 -6.882812 6.976562 -7.160156 6.53125 -7.359375 C 6.082031 -7.566406 5.632812 -7.671875 5.1875 -7.671875 C 4.28125 -7.671875 3.515625 -7.363281 2.890625 -6.75 C 2.273438 -6.144531 1.96875 -5.398438 1.96875 -4.515625 C 1.96875 -3.628906 2.273438 -2.878906 2.890625 -2.265625 C 3.515625 -1.648438 4.28125 -1.34375 5.1875 -1.34375 C 6.113281 -1.34375 6.945312 -1.695312 7.6875 -2.40625 L 8.578125 -1.40625 C 8.117188 -0.957031 7.582031 -0.597656 6.96875 -0.328125 C 6.351562 -0.0664062 5.734375 0.0625 5.109375 0.0625 C 3.785156 0.0625 2.675781 -0.375 1.78125 -1.25 C 0.882812 -2.125 0.4375 -3.207031 0.4375 -4.5 C 0.4375 -5.769531 0.890625 -6.835938 1.796875 -7.703125 C 2.710938 -8.578125 3.832031 -9.015625 5.15625 -9.015625 Z M 5.15625 -9.015625 "/></g></g></g><g fill="#060606" fill-opacity="1"><g transform="translate(131.918606, 238.444247)"><g><path d="M 6.984375 -2.03125 L 2.453125 -2.03125 L 1.59375 0 L 0.015625 0 L 3.984375 -8.984375 L 5.53125 -8.984375 L 9.453125 0 L 7.84375 0 Z M 6.40625 -3.375 L 4.703125 -7.359375 L 3.015625 -3.375 Z M 6.40625 -3.375 "/></g></g></g><g fill="#060606" fill-opacity="1"><g transform="translate(148.437083, 238.444247)"><g><path d="M 2.6875 -1.375 L 6.578125 -1.375 L 6.578125 0 L 1.1875 0 L 1.1875 -8.984375 L 2.6875 -8.984375 Z M 2.6875 -1.375 "/></g></g></g><g fill="#060606" fill-opacity="1"><g transform="translate(162.340231, 238.444247)"><g><path d="M 2.6875 0 L 1.1875 0 L 1.1875 -8.984375 L 2.6875 -8.984375 Z M 2.6875 0 "/></g></g></g><g fill="#060606" fill-opacity="1"><g transform="translate(173.269081, 238.444247)"><g><path d="M 7.203125 -7.625 L 2.6875 -7.625 L 2.6875 -5.03125 L 6.765625 -5.03125 L 6.765625 -3.6875 L 2.6875 -3.6875 L 2.6875 0 L 1.1875 0 L 1.1875 -8.984375 L 7.203125 -8.984375 Z M 7.203125 -7.625 "/></g></g></g><g fill="#060606" fill-opacity="1"><g transform="translate(187.697854, 238.444247)"><g><path d="M 1.8125 -7.703125 C 2.726562 -8.578125 3.851562 -9.015625 5.1875 -9.015625 C 6.53125 -9.015625 7.660156 -8.578125 8.578125 -7.703125 C 9.492188 -6.835938 9.953125 -5.765625 9.953125 -4.484375 C 9.953125 -3.203125 9.492188 -2.125 8.578125 -1.25 C 7.660156 -0.375 6.53125 0.0625 5.1875 0.0625 C 3.851562 0.0625 2.726562 -0.375 1.8125 -1.25 C 0.894531 -2.125 0.4375 -3.203125 0.4375 -4.484375 C 0.4375 -5.765625 0.894531 -6.835938 1.8125 -7.703125 Z M 5.203125 -7.65625 C 4.316406 -7.65625 3.554688 -7.347656 2.921875 -6.734375 C 2.285156 -6.128906 1.96875 -5.378906 1.96875 -4.484375 C 1.96875 -3.597656 2.285156 -2.84375 2.921875 -2.21875 C 3.566406 -1.601562 4.328125 -1.296875 5.203125 -1.296875 C 6.085938 -1.296875 6.84375 -1.601562 7.46875 -2.21875 C 8.09375 -2.84375 8.40625 -3.597656 8.40625 -4.484375 C 8.40625 -5.378906 8.09375 -6.128906 7.46875 -6.734375 C 6.84375 -7.347656 6.085938 -7.65625 5.203125 -7.65625 Z M 5.203125 -7.65625 "/></g></g></g><g fill="#060606" fill-opacity="1"><g transform="translate(205.139387, 238.444247)"><g><path d="M 6.875 0 L 5.234375 -2.71875 C 5.148438 -2.707031 5.015625 -2.703125 4.828125 -2.703125 L 2.6875 -2.703125 L 2.6875 0 L 1.1875 0 L 1.1875 -8.984375 L 4.828125 -8.984375 C 5.972656 -8.984375 6.859375 -8.710938 7.484375 -8.171875 C 8.117188 -7.640625 8.4375 -6.882812 8.4375 -5.90625 C 8.4375 -5.195312 8.273438 -4.59375 7.953125 -4.09375 C 7.640625 -3.59375 7.179688 -3.226562 6.578125 -3 L 8.59375 0 Z M 2.6875 -4.0625 L 4.828125 -4.0625 C 6.273438 -4.0625 7 -4.664062 7 -5.875 C 7 -7.039062 6.273438 -7.625 4.828125 -7.625 L 2.6875 -7.625 Z M 2.6875 -4.0625 "/></g></g></g><g fill="#060606" fill-opacity="1"><g transform="translate(221.465556, 238.444247)"><g><path d="M 8.96875 0 L 7.484375 0 L 2.6875 -6.4375 L 2.6875 0 L 1.1875 0 L 1.1875 -8.984375 L 2.671875 -8.984375 L 7.484375 -2.53125 L 7.484375 -8.984375 L 8.96875 -8.984375 Z M 8.96875 0 "/></g></g></g><g fill="#060606" fill-opacity="1"><g transform="translate(238.676325, 238.444247)"><g><path d="M 2.6875 0 L 1.1875 0 L 1.1875 -8.984375 L 2.6875 -8.984375 Z M 2.6875 0 "/></g></g></g><g fill="#060606" fill-opacity="1"><g transform="translate(249.60518, 238.444247)"><g><path d="M 6.984375 -2.03125 L 2.453125 -2.03125 L 1.59375 0 L 0.015625 0 L 3.984375 -8.984375 L 5.53125 -8.984375 L 9.453125 0 L 7.84375 0 Z M 6.40625 -3.375 L 4.703125 -7.359375 L 3.015625 -3.375 Z M 6.40625 -3.375 "/></g></g></g></svg>