<svg xmlns="http://www.w3.org/2000/svg" viewBox="0 0 119.29 122.91"><defs><style>.cls-1{fill:#097e96;}.cls-2{fill:#cecece;}.cls-3{fill:#d6d1c9;}.cls-4{fill:#892334;}.cls-5{fill:#ddd8d3;}.cls-6{fill:#711c27;}.cls-7{fill:#761c29;}.cls-8{fill:#7b1418;}</style></defs><title>merithr_logo</title><g id="Layer_2" data-name="Layer 2"><g id="Layer_1-2" data-name="Layer 1"><path class="cls-1" d="M.71,113.64H3.32c1.45,0,2.66.47,2.66,2.13s-1.12,2.15-2.59,2.15H2.26v2.74H.71Zm1.55,3h1c.54,0,1.09-.19,1.09-.85S3.64,115,3.05,115H2.26Z" transform="translate(-0.71)"></path><path class="cls-1" d="M11.32,119.82a2.62,2.62,0,0,1-2,1,2.53,2.53,0,1,1,0-5.06,2.24,2.24,0,0,1,2.25,2.53v.46H8.1a1.11,1.11,0,0,0,1.12.94,1.28,1.28,0,0,0,1.06-.59Zm-1.26-2.12a.89.89,0,0,0-.91-.91,1,1,0,0,0-1.05.91Z" transform="translate(-0.71)"></path><path class="cls-1" d="M14.94,115.72a2.53,2.53,0,1,1,0,5.06,2.53,2.53,0,1,1,0-5.06Zm0,3.75a1.22,1.22,0,1,0-1.19-1.22A1.13,1.13,0,0,0,14.94,119.47Z" transform="translate(-0.71)"></path><path class="cls-1" d="M18.62,115.84H20v.64h0a1.84,1.84,0,0,1,1.47-.76,2.31,2.31,0,0,1,2.37,2.49,2.35,2.35,0,0,1-2.2,2.57,1.8,1.8,0,0,1-1.53-.64h0v2.77H18.62Zm2.55,3.63A1.22,1.22,0,1,0,20,118.25,1.13,1.13,0,0,0,21.17,119.47Z" transform="translate(-0.71)"></path><path class="cls-1" d="M24.74,113.17h1.48v7.49H24.74Z" transform="translate(-0.71)"></path><path class="cls-1" d="M31.85,119.82a2.62,2.62,0,0,1-2,1,2.53,2.53,0,1,1,0-5.06,2.24,2.24,0,0,1,2.25,2.53v.46H28.63a1.11,1.11,0,0,0,1.12.94,1.28,1.28,0,0,0,1.06-.59Zm-1.26-2.12a.89.89,0,0,0-.91-.91,1,1,0,0,0-1.05.91Z" transform="translate(-0.71)"></path><path class="cls-1" d="M33.91,118.89a.92.92,0,1,1-.91.91A.91.91,0,0,1,33.91,118.89Z" transform="translate(-0.71)"></path><path class="cls-1" d="M39,113.64h2.6c1.46,0,2.67.47,2.67,2.13s-1.12,2.15-2.6,2.15H40.56v2.74H39Zm1.54,3h1c.55,0,1.09-.19,1.09-.85S42,115,41.36,115h-.8Z" transform="translate(-0.71)"></path><path class="cls-1" d="M49.7,120.66H48.28V120h0a1.57,1.57,0,0,1-1.41.78c-1.5,0-1.78-1-1.78-2.28v-2.66h1.48v2.36c0,.55,0,1.27.78,1.27s.89-.61.89-1.23v-2.4H49.7Z" transform="translate(-0.71)"></path><path class="cls-1" d="M50.75,115.84h1.48v.78h0a1.48,1.48,0,0,1,1.39-.9,2,2,0,0,1,.5,0v1.36a2.31,2.31,0,0,0-.64-.1c-1.13,0-1.27.66-1.27,1.62v2H50.75Z" transform="translate(-0.71)"></path><path class="cls-1" d="M54.92,115.84h1.36v.64h0a1.86,1.86,0,0,1,1.48-.76,2.32,2.32,0,0,1,2.37,2.49,2.36,2.36,0,0,1-2.2,2.57,1.79,1.79,0,0,1-1.53-.64h0v2.77H54.92Zm2.55,3.63a1.22,1.22,0,1,0-1.19-1.22A1.13,1.13,0,0,0,57.47,119.47Z" transform="translate(-0.71)"></path><path class="cls-1" d="M63.51,115.72a2.53,2.53,0,1,1-2.67,2.53A2.51,2.51,0,0,1,63.51,115.72Zm0,3.75a1.22,1.22,0,1,0-1.19-1.22A1.13,1.13,0,0,0,63.51,119.47Z" transform="translate(-0.71)"></path><path class="cls-1" d="M69.78,117.26a1.07,1.07,0,0,0-.87-.41c-.24,0-.54.11-.54.4,0,.71,2.51.11,2.51,1.94,0,1.23-1.19,1.59-2.22,1.59a2.65,2.65,0,0,1-1.9-.66l.91-1a1.27,1.27,0,0,0,1,.53c.33,0,.67-.09.67-.35,0-.77-2.51-.12-2.51-2,0-1.13,1-1.63,2-1.63a2.43,2.43,0,0,1,1.79.64Z" transform="translate(-0.71)"></path><path class="cls-1" d="M76.19,119.82a2.62,2.62,0,0,1-2,1,2.53,2.53,0,1,1,0-5.06,2.24,2.24,0,0,1,2.26,2.53v.46H73a1.12,1.12,0,0,0,1.12.94,1.26,1.26,0,0,0,1.06-.59Zm-1.26-2.12a.89.89,0,0,0-.91-.91,1,1,0,0,0-1,.91Z" transform="translate(-0.71)"></path><path class="cls-1" d="M78.26,118.89a.92.92,0,1,1-.91.91A.91.91,0,0,1,78.26,118.89Z" transform="translate(-0.71)"></path><path class="cls-1" d="M83.34,113.64h1.55v7H83.34Z" transform="translate(-0.71)"></path><path class="cls-1" d="M86.11,115.84h1.42v.66h0a1.57,1.57,0,0,1,1.41-.78,1.5,1.5,0,0,1,1.48.87,1.57,1.57,0,0,1,1.53-.87c1.31,0,1.7.93,1.7,2.09v2.85H92.19v-2.81c0-.44-.17-.82-.66-.82-.68,0-.9.49-.9,1.08v2.55H89.15v-2.55c0-.36,0-1.08-.67-1.08s-.89.61-.89,1.23v2.4H86.11Z" transform="translate(-0.71)"></path><path class="cls-1" d="M94.86,115.84h1.36v.64h0a1.86,1.86,0,0,1,1.48-.76,2.32,2.32,0,0,1,2.37,2.49,2.36,2.36,0,0,1-2.2,2.57,1.79,1.79,0,0,1-1.53-.64h0v2.77H94.86Zm2.55,3.63a1.22,1.22,0,1,0-1.19-1.22A1.13,1.13,0,0,0,97.41,119.47Z" transform="translate(-0.71)"></path><path class="cls-1" d="M104,120.05h0a1.75,1.75,0,0,1-1.53.73,1.54,1.54,0,0,1-1.71-1.49c0-1.66,2-1.69,3.25-1.69a.88.88,0,0,0-1-.87,1.56,1.56,0,0,0-1.2.58l-.8-.81a3.1,3.1,0,0,1,2.12-.78c1.74,0,2.2.89,2.2,2.49v2.45H104Zm-.36-1.5c-.46,0-1.47,0-1.47.69,0,.36.38.52.71.52.58,0,1.12-.3,1.12-.9v-.31Z" transform="translate(-0.71)"></path><path class="cls-1" d="M109.53,117.4a.93.93,0,0,0-.74-.37,1.22,1.22,0,0,0,0,2.44,1,1,0,0,0,.74-.37l1,1a2.42,2.42,0,0,1-1.72.65,2.53,2.53,0,1,1,0-5.06,2.42,2.42,0,0,1,1.72.65Z" transform="translate(-0.71)"></path><path class="cls-1" d="M114.32,117H113v1.61c0,.51.06.89.7.89a1.08,1.08,0,0,0,.61-.14v1.24a3.31,3.31,0,0,1-1,.15c-1,0-1.75-.41-1.75-1.46V117h-1v-1.19h1v-1.42H113v1.42h1.31Z" transform="translate(-0.71)"></path><path class="cls-1" d="M115.66,119.86a.69.69,0,1,1-.69.69A.69.69,0,0,1,115.66,119.86Z" transform="translate(-0.71)"></path><polygon class="cls-2" points="101.34 35.5 39.86 0 39.86 89.11 94.93 57.34 79.21 48.27 101.34 35.5"></polygon><polygon class="cls-3" points="104.17 62.67 69.93 82.42 116.32 109.17 116.32 69.68 112.49 67.47 104.17 62.67"></polygon><polygon class="cls-4" points="27.15 83.15 21.06 83.15 21.06 65.67 20.98 65.67 19.95 67.75 14.94 74.58 12.31 74.58 7.29 67.75 6.27 65.67 6.19 65.67 6.19 83.15 0.09 83.15 0.09 56.34 6.18 56.34 15.21 69.97 15.34 69.74 14.55 66.31 21.15 56.34 27.15 56.34 27.15 83.15"></polygon><path class="cls-4" d="M78.24,63.33v4.58H74.68v.29l3.56,1.29V83.15H72.36V63.55Zm0-7.75v4.79l-6,.23V55.84Z" transform="translate(-0.71)"></path><polygon class="cls-5" points="116.27 55.69 116.31 55.77 116.32 55.79 116.32 55.66 116.27 55.69"></polygon><polygon class="cls-4" points="108.21 52.27 108.21 49.68 104.91 51.59 104.91 52.27 108.21 52.27"></polygon><polygon class="cls-4" points="102.75 48.59 104.91 48.59 104.91 51.58 108.21 49.68 108.21 48.59 110.1 48.59 117.05 44.58 101.34 35.5 79.21 48.27 94.93 57.34 102.75 52.83 102.75 48.59"></polygon><polygon class="cls-6" points="101.34 35.5 101.34 35.5 79.21 48.27 94.93 57.34 102.75 52.83 102.75 48.59 104.91 48.59 104.91 51.59 108.21 49.68 108.21 48.59 110.1 48.59 117.05 44.58 101.34 35.5"></polygon><path class="cls-4" d="M113.2,67.47,117,69.68Z" transform="translate(-0.71)"></path><path class="cls-7" d="M113.2,67.47,117,69.68Z" transform="translate(-0.71)"></path><path class="cls-8" d="M116.6,54.92h0l-1.4,0v1.83l1.78-1Z" transform="translate(-0.71)"></path><polygon class="cls-8" points="116.32 69.68 116.32 55.79 116.27 55.69 114.49 56.71 114.49 58.06 112.34 58.06 112.34 57.95 104.17 62.67 116.32 69.68"></polygon><path class="cls-4" d="M37.27,71h7.2c0-2.38-1.33-3.71-3.51-3.71-2.34,0-3.38,1.15-3.69,3.71m-2.89,4.25v.29l3.46,1.2c.54,1.67,1.91,2.57,4,2.57a6.18,6.18,0,0,0,4.82-2.15l3,3.48a11.13,11.13,0,0,1-8,3.18c-5.56,0-10.57-3.64-10.57-10.66,0-6.24,3.77-10.37,9.7-10.37C45,62.81,50,64.69,50,73.34v1.93Z" transform="translate(-0.71)"></path><path class="cls-4" d="M67.65,63.69l-1.28,5.09a8,8,0,0,0-3.58-1.06c-1.94,0-5.48,1.15-6.4,4.76h.34A4.86,4.86,0,0,1,59.89,70a12.48,12.48,0,0,0-.64,4.37v8.77H53.37V63.53l4.25-.23,1.23,3.11h.07c.66-2.48,2.07-3.6,5-3.6a8.6,8.6,0,0,1,3.77.88" transform="translate(-0.71)"></path><path class="cls-4" d="M99.3,82.77a10.88,10.88,0,0,1-4.87,1c-3.21,0-6-1.64-6-5.79v-10H86.16V63.55h2.32V58.73l5.44-.68.36,5.5h4.91l-.11,4.35H90.71v.3l3.57,1.29v8c0,1.33.75,1.75,1.86,1.75a7.26,7.26,0,0,0,3-.61Z" transform="translate(-0.71)"></path><path class="cls-8" d="M118.69,54.42,120,57V52.65a2.78,2.78,0,0,1-1.31,1.77" transform="translate(-0.71)"></path><path class="cls-8" d="M116.32,50.4c-.53,0-1.57.06-2.42.11v0l1.3.58v2l1.07,0c1.1,0,1.55-.25,1.55-1.36s-.41-1.34-1.5-1.34" transform="translate(-0.71)"></path><path class="cls-4" d="M116.12,48.5c2.44,0,3.53.83,3.88,2.08V25.15l-18,10.35,15.71,9.08-7,4h.26v9.47h-2.15V54.19h-4.6v.1l1.3.58v3.19h-2.16V52.83l-7.82,4.51L113.2,67.47,117,69.68l3,1.71V58.06h-1.86l-1.54-3.14h0l-1.4,0v3.18h-2.15V48.59c.75,0,2.42-.09,3.07-.09" transform="translate(-0.71)"></path></g></g></svg>