<svg xmlns="http://www.w3.org/2000/svg" xmlns:xlink="http://www.w3.org/1999/xlink" width="300" zoomAndPan="magnify" viewBox="0 0 224.87999 74.999997" height="100" preserveAspectRatio="xMidYMid meet" version="1.0"><defs><g/><clipPath id="3818b9dd5f"><path d="M 0 0.0195312 L 224.761719 0.0195312 L 224.761719 74.980469 L 0 74.980469 Z M 0 0.0195312 " clip-rule="nonzero"/></clipPath><clipPath id="681393b9d3"><path d="M 11.5625 6.726562 L 210.199219 6.726562 L 210.199219 67.445312 L 11.5625 67.445312 Z M 11.5625 6.726562 " clip-rule="nonzero"/></clipPath><clipPath id="07cc8f6c72"><path d="M 86.363281 44.214844 L 138.835938 44.214844 L 138.835938 49.460938 L 86.363281 49.460938 Z M 86.363281 44.214844 " clip-rule="nonzero"/></clipPath></defs><g clip-path="url(#3818b9dd5f)"><path fill="#ffffff" d="M 0 0.0195312 L 224.878906 0.0195312 L 224.878906 82.476562 L 0 82.476562 Z M 0 0.0195312 " fill-opacity="1" fill-rule="nonzero"/><path fill="#ffffff" d="M 0 0.0195312 L 224.878906 0.0195312 L 224.878906 74.980469 L 0 74.980469 Z M 0 0.0195312 " fill-opacity="1" fill-rule="nonzero"/><path fill="#fbfaf9" d="M 0 0.0195312 L 224.878906 0.0195312 L 224.878906 74.980469 L 0 74.980469 Z M 0 0.0195312 " fill-opacity="1" fill-rule="nonzero"/></g><g clip-path="url(#681393b9d3)"><path stroke-linecap="butt" transform="matrix(0.750308, 0, 0, 0.749166, 11.563308, 6.72813)" fill="none" stroke-linejoin="miter" d="M -0.00107718 -0.00209218 L 264.739258 -0.00209218 L 264.739258 81.046327 L -0.00107718 81.046327 L -0.00107718 -0.00209218 " stroke="#060606" stroke-width="2" stroke-opacity="1" stroke-miterlimit="4"/></g><g fill="#060606" fill-opacity="1"><g transform="translate(49.221724, 34.777451)"><g><path d="M 12.109375 -10.859375 C 11.742188 -10.835938 11.484375 -10.796875 11.328125 -10.734375 C 11.171875 -10.671875 11.0625 -10.546875 11 -10.359375 C 10.945312 -10.179688 10.921875 -9.894531 10.921875 -9.5 L 10.921875 -1.671875 C 10.921875 -1.273438 10.945312 -0.984375 11 -0.796875 C 11.0625 -0.617188 11.171875 -0.5 11.328125 -0.4375 C 11.484375 -0.375 11.742188 -0.332031 12.109375 -0.3125 L 12.109375 0 C 11.585938 -0.03125 10.785156 -0.046875 9.703125 -0.046875 C 8.640625 -0.046875 7.816406 -0.03125 7.234375 0 L 7.234375 -0.3125 C 7.578125 -0.332031 7.828125 -0.375 7.984375 -0.4375 C 8.148438 -0.5 8.257812 -0.617188 8.3125 -0.796875 C 8.375 -0.984375 8.40625 -1.273438 8.40625 -1.671875 L 8.40625 -5.453125 L 4.234375 -5.453125 L 4.234375 -1.671875 C 4.234375 -1.273438 4.257812 -0.984375 4.3125 -0.796875 C 4.375 -0.617188 4.484375 -0.5 4.640625 -0.4375 C 4.796875 -0.375 5.050781 -0.332031 5.40625 -0.3125 L 5.40625 0 C 4.84375 -0.03125 4.050781 -0.046875 3.03125 -0.046875 C 1.90625 -0.046875 1.070312 -0.03125 0.53125 0 L 0.53125 -0.3125 C 0.882812 -0.332031 1.140625 -0.375 1.296875 -0.4375 C 1.460938 -0.5 1.570312 -0.617188 1.625 -0.796875 C 1.6875 -0.984375 1.71875 -1.273438 1.71875 -1.671875 L 1.71875 -9.5 C 1.71875 -9.894531 1.6875 -10.179688 1.625 -10.359375 C 1.570312 -10.546875 1.460938 -10.671875 1.296875 -10.734375 C 1.140625 -10.796875 0.882812 -10.835938 0.53125 -10.859375 L 0.53125 -11.171875 C 1.070312 -11.140625 1.90625 -11.125 3.03125 -11.125 C 4.050781 -11.125 4.84375 -11.140625 5.40625 -11.171875 L 5.40625 -10.859375 C 5.050781 -10.835938 4.796875 -10.796875 4.640625 -10.734375 C 4.484375 -10.671875 4.375 -10.546875 4.3125 -10.359375 C 4.257812 -10.179688 4.234375 -9.894531 4.234375 -9.5 L 4.234375 -5.78125 L 8.40625 -5.78125 L 8.40625 -9.5 C 8.40625 -9.894531 8.375 -10.179688 8.3125 -10.359375 C 8.257812 -10.546875 8.148438 -10.671875 7.984375 -10.734375 C 7.828125 -10.796875 7.578125 -10.835938 7.234375 -10.859375 L 7.234375 -11.171875 C 7.816406 -11.140625 8.640625 -11.125 9.703125 -11.125 C 10.785156 -11.125 11.585938 -11.140625 12.109375 -11.171875 Z M 12.109375 -10.859375 "/></g></g></g><g fill="#060606" fill-opacity="1"><g transform="translate(61.369377, 34.777451)"><g><path d="M 8.234375 -1.71875 C 8.234375 -1.238281 8.3125 -0.882812 8.46875 -0.65625 C 8.625 -0.4375 8.882812 -0.328125 9.25 -0.328125 L 9.25 0 C 8.925781 -0.03125 8.597656 -0.046875 8.265625 -0.046875 C 7.347656 -0.046875 6.582031 0.0234375 5.96875 0.171875 L 5.96875 -1.25 C 5.476562 -0.269531 4.628906 0.21875 3.421875 0.21875 C 2.628906 0.21875 2.054688 0.015625 1.703125 -0.390625 C 1.535156 -0.585938 1.410156 -0.847656 1.328125 -1.171875 C 1.253906 -1.492188 1.21875 -1.921875 1.21875 -2.453125 L 1.21875 -6.4375 C 1.21875 -6.925781 1.140625 -7.28125 0.984375 -7.5 C 0.828125 -7.71875 0.566406 -7.828125 0.203125 -7.828125 L 0.203125 -8.15625 C 0.523438 -8.125 0.851562 -8.109375 1.1875 -8.109375 C 2.101562 -8.109375 2.867188 -8.179688 3.484375 -8.328125 L 3.484375 -1.796875 C 3.484375 -1.359375 3.546875 -1.023438 3.671875 -0.796875 C 3.804688 -0.578125 4.0625 -0.46875 4.4375 -0.46875 C 4.851562 -0.46875 5.210938 -0.644531 5.515625 -1 C 5.816406 -1.351562 5.96875 -1.785156 5.96875 -2.296875 L 5.96875 -6.4375 C 5.96875 -6.925781 5.890625 -7.28125 5.734375 -7.5 C 5.578125 -7.71875 5.316406 -7.828125 4.953125 -7.828125 L 4.953125 -8.15625 C 5.285156 -8.125 5.613281 -8.109375 5.9375 -8.109375 C 6.851562 -8.109375 7.617188 -8.179688 8.234375 -8.328125 Z M 8.234375 -1.71875 "/></g></g></g><g fill="#060606" fill-opacity="1"><g transform="translate(70.456339, 34.777451)"><g><path d="M 13.0625 -1.46875 C 13.0625 -1.039062 13.140625 -0.742188 13.296875 -0.578125 C 13.453125 -0.410156 13.710938 -0.328125 14.078125 -0.328125 L 14.078125 0 C 13.023438 -0.0390625 12.332031 -0.0625 12 -0.0625 C 11.695312 -0.0625 11.039062 -0.0390625 10.03125 0 L 10.03125 -0.328125 C 10.320312 -0.328125 10.519531 -0.40625 10.625 -0.5625 C 10.738281 -0.726562 10.796875 -1.03125 10.796875 -1.46875 L 10.796875 -6.375 C 10.796875 -6.8125 10.726562 -7.140625 10.59375 -7.359375 C 10.46875 -7.578125 10.21875 -7.6875 9.84375 -7.6875 C 9.457031 -7.6875 9.117188 -7.519531 8.828125 -7.1875 C 8.535156 -6.863281 8.363281 -6.46875 8.3125 -6 L 8.3125 -1.46875 C 8.3125 -1.039062 8.378906 -0.742188 8.515625 -0.578125 C 8.648438 -0.410156 8.890625 -0.328125 9.234375 -0.328125 L 9.234375 0 C 8.222656 -0.0390625 7.5625 -0.0625 7.25 -0.0625 C 6.945312 -0.0625 6.289062 -0.0390625 5.28125 0 L 5.28125 -0.328125 C 5.570312 -0.328125 5.769531 -0.410156 5.875 -0.578125 C 5.988281 -0.742188 6.046875 -1.039062 6.046875 -1.46875 L 6.046875 -6.375 C 6.046875 -6.8125 5.988281 -7.140625 5.875 -7.359375 C 5.757812 -7.578125 5.53125 -7.6875 5.1875 -7.6875 C 4.769531 -7.6875 4.410156 -7.507812 4.109375 -7.15625 C 3.804688 -6.800781 3.65625 -6.367188 3.65625 -5.859375 L 3.65625 -1.46875 C 3.65625 -1.039062 3.710938 -0.742188 3.828125 -0.578125 C 3.941406 -0.410156 4.140625 -0.328125 4.421875 -0.328125 L 4.421875 0 C 3.492188 -0.0390625 2.875 -0.0625 2.5625 -0.0625 C 2.238281 -0.0625 1.507812 -0.0390625 0.375 0 L 0.375 -0.328125 C 0.757812 -0.328125 1.023438 -0.410156 1.171875 -0.578125 C 1.316406 -0.742188 1.390625 -1.039062 1.390625 -1.46875 L 1.390625 -6.4375 C 1.390625 -6.925781 1.316406 -7.28125 1.171875 -7.5 C 1.023438 -7.71875 0.757812 -7.828125 0.375 -7.828125 L 0.375 -8.15625 C 0.71875 -8.125 1.046875 -8.109375 1.359375 -8.109375 C 2.296875 -8.109375 3.0625 -8.179688 3.65625 -8.328125 L 3.65625 -6.90625 C 4.125 -7.882812 4.941406 -8.375 6.109375 -8.375 C 6.910156 -8.375 7.488281 -8.171875 7.84375 -7.765625 C 8.039062 -7.554688 8.171875 -7.238281 8.234375 -6.8125 C 8.503906 -7.382812 8.859375 -7.785156 9.296875 -8.015625 C 9.742188 -8.253906 10.265625 -8.375 10.859375 -8.375 C 11.660156 -8.375 12.238281 -8.171875 12.59375 -7.765625 C 12.757812 -7.578125 12.878906 -7.316406 12.953125 -6.984375 C 13.023438 -6.660156 13.0625 -6.238281 13.0625 -5.71875 Z M 13.0625 -1.46875 "/></g></g></g><g fill="#060606" fill-opacity="1"><g transform="translate(84.260545, 34.777451)"><g><path d="M 2.46875 0.109375 C 1.789062 0.109375 1.285156 -0.0625 0.953125 -0.40625 C 0.617188 -0.757812 0.453125 -1.21875 0.453125 -1.78125 C 0.453125 -2.257812 0.578125 -2.648438 0.828125 -2.953125 C 1.078125 -3.265625 1.375 -3.503906 1.71875 -3.671875 C 2.070312 -3.835938 2.523438 -4.019531 3.078125 -4.21875 C 3.648438 -4.414062 4.070312 -4.59375 4.34375 -4.75 C 4.613281 -4.914062 4.75 -5.140625 4.75 -5.421875 L 4.75 -6.65625 C 4.75 -7.101562 4.644531 -7.445312 4.4375 -7.6875 C 4.238281 -7.9375 3.921875 -8.0625 3.484375 -8.0625 C 2.984375 -8.0625 2.597656 -7.9375 2.328125 -7.6875 C 2.628906 -7.582031 2.859375 -7.421875 3.015625 -7.203125 C 3.179688 -6.992188 3.265625 -6.75 3.265625 -6.46875 C 3.265625 -6.113281 3.144531 -5.828125 2.90625 -5.609375 C 2.664062 -5.398438 2.367188 -5.296875 2.015625 -5.296875 C 1.648438 -5.296875 1.367188 -5.410156 1.171875 -5.640625 C 0.972656 -5.878906 0.875 -6.171875 0.875 -6.515625 C 0.875 -6.804688 0.941406 -7.054688 1.078125 -7.265625 C 1.222656 -7.472656 1.441406 -7.664062 1.734375 -7.84375 C 2.015625 -8.007812 2.363281 -8.140625 2.78125 -8.234375 C 3.195312 -8.328125 3.65625 -8.375 4.15625 -8.375 C 4.664062 -8.375 5.109375 -8.320312 5.484375 -8.21875 C 5.867188 -8.113281 6.1875 -7.9375 6.4375 -7.6875 C 6.664062 -7.457031 6.816406 -7.171875 6.890625 -6.828125 C 6.972656 -6.492188 7.015625 -6.035156 7.015625 -5.453125 L 7.015625 -1.171875 C 7.015625 -0.910156 7.039062 -0.726562 7.09375 -0.625 C 7.144531 -0.519531 7.238281 -0.46875 7.375 -0.46875 C 7.53125 -0.46875 7.71875 -0.554688 7.9375 -0.734375 L 8.09375 -0.46875 C 7.625 -0.0820312 7.046875 0.109375 6.359375 0.109375 C 5.773438 0.109375 5.367188 -0.00390625 5.140625 -0.234375 C 4.910156 -0.460938 4.789062 -0.773438 4.78125 -1.171875 C 4.257812 -0.316406 3.488281 0.109375 2.46875 0.109375 Z M 3.671875 -0.90625 C 4.085938 -0.90625 4.445312 -1.117188 4.75 -1.546875 L 4.75 -4.78125 C 4.625 -4.570312 4.351562 -4.34375 3.9375 -4.09375 C 3.53125 -3.820312 3.222656 -3.554688 3.015625 -3.296875 C 2.804688 -3.035156 2.703125 -2.65625 2.703125 -2.15625 C 2.703125 -1.726562 2.789062 -1.410156 2.96875 -1.203125 C 3.144531 -1.003906 3.378906 -0.90625 3.671875 -0.90625 Z M 3.671875 -0.90625 "/></g></g></g><g fill="#060606" fill-opacity="1"><g transform="translate(91.959152, 34.777451)"><g><path d="M 6.25 -8.375 C 7.050781 -8.375 7.628906 -8.171875 7.984375 -7.765625 C 8.160156 -7.566406 8.285156 -7.304688 8.359375 -6.984375 C 8.429688 -6.671875 8.46875 -6.25 8.46875 -5.71875 L 8.46875 -1.46875 C 8.46875 -1.039062 8.546875 -0.742188 8.703125 -0.578125 C 8.859375 -0.410156 9.117188 -0.328125 9.484375 -0.328125 L 9.484375 0 C 8.429688 -0.0390625 7.738281 -0.0625 7.40625 -0.0625 C 7.082031 -0.0625 6.394531 -0.0390625 5.34375 0 L 5.34375 -0.328125 C 5.664062 -0.328125 5.890625 -0.410156 6.015625 -0.578125 C 6.140625 -0.742188 6.203125 -1.039062 6.203125 -1.46875 L 6.203125 -6.375 C 6.203125 -6.800781 6.128906 -7.125 5.984375 -7.34375 C 5.847656 -7.570312 5.59375 -7.6875 5.21875 -7.6875 C 4.789062 -7.6875 4.421875 -7.507812 4.109375 -7.15625 C 3.804688 -6.800781 3.65625 -6.367188 3.65625 -5.859375 L 3.65625 -1.46875 C 3.65625 -1.039062 3.71875 -0.742188 3.84375 -0.578125 C 3.976562 -0.410156 4.203125 -0.328125 4.515625 -0.328125 L 4.515625 0 C 3.546875 -0.0390625 2.894531 -0.0625 2.5625 -0.0625 C 2.238281 -0.0625 1.507812 -0.0390625 0.375 0 L 0.375 -0.328125 C 0.757812 -0.328125 1.023438 -0.410156 1.171875 -0.578125 C 1.316406 -0.742188 1.390625 -1.039062 1.390625 -1.46875 L 1.390625 -6.4375 C 1.390625 -6.925781 1.316406 -7.28125 1.171875 -7.5 C 1.023438 -7.71875 0.757812 -7.828125 0.375 -7.828125 L 0.375 -8.15625 C 0.71875 -8.125 1.046875 -8.109375 1.359375 -8.109375 C 2.296875 -8.109375 3.0625 -8.179688 3.65625 -8.328125 L 3.65625 -6.90625 C 4.132812 -7.882812 5 -8.375 6.25 -8.375 Z M 6.25 -8.375 "/></g></g></g><g fill="#060606" fill-opacity="1"><g transform="translate(101.172319, 34.777451)"><g/></g></g><g fill="#060606" fill-opacity="1"><g transform="translate(104.374549, 34.777451)"><g><path d="M 11.234375 -0.6875 C 10.953125 -0.363281 10.644531 -0.132812 10.3125 0 C 9.988281 0.144531 9.597656 0.21875 9.140625 0.21875 C 8.523438 0.21875 8.039062 0.09375 7.6875 -0.15625 C 7.34375 -0.414062 7.113281 -0.859375 7 -1.484375 L 6.71875 -3.0625 C 6.582031 -3.832031 6.414062 -4.394531 6.21875 -4.75 C 6.03125 -5.113281 5.707031 -5.296875 5.25 -5.296875 L 4.234375 -5.296875 L 4.234375 -1.671875 C 4.234375 -1.273438 4.257812 -0.984375 4.3125 -0.796875 C 4.375 -0.617188 4.484375 -0.5 4.640625 -0.4375 C 4.796875 -0.375 5.050781 -0.332031 5.40625 -0.3125 L 5.40625 0 C 4.84375 -0.03125 4.050781 -0.046875 3.03125 -0.046875 C 1.90625 -0.046875 1.070312 -0.03125 0.53125 0 L 0.53125 -0.3125 C 0.882812 -0.332031 1.140625 -0.375 1.296875 -0.4375 C 1.460938 -0.5 1.570312 -0.617188 1.625 -0.796875 C 1.6875 -0.984375 1.71875 -1.273438 1.71875 -1.671875 L 1.71875 -9.5 C 1.71875 -9.894531 1.6875 -10.179688 1.625 -10.359375 C 1.570312 -10.546875 1.460938 -10.671875 1.296875 -10.734375 C 1.140625 -10.796875 0.882812 -10.835938 0.53125 -10.859375 L 0.53125 -11.171875 C 1.070312 -11.140625 1.875 -11.125 2.9375 -11.125 L 4.6875 -11.140625 C 4.894531 -11.148438 5.132812 -11.15625 5.40625 -11.15625 C 6.863281 -11.15625 7.957031 -10.914062 8.6875 -10.4375 C 9.414062 -9.96875 9.78125 -9.289062 9.78125 -8.40625 C 9.78125 -7.664062 9.503906 -7.007812 8.953125 -6.4375 C 8.410156 -5.875 7.507812 -5.515625 6.25 -5.359375 C 7.195312 -5.273438 7.898438 -5.070312 8.359375 -4.75 C 8.828125 -4.425781 9.128906 -3.9375 9.265625 -3.28125 L 9.625 -1.65625 C 9.707031 -1.238281 9.800781 -0.941406 9.90625 -0.765625 C 10.019531 -0.597656 10.179688 -0.515625 10.390625 -0.515625 C 10.515625 -0.523438 10.617188 -0.554688 10.703125 -0.609375 C 10.796875 -0.660156 10.898438 -0.753906 11.015625 -0.890625 Z M 5.203125 -10.859375 C 4.921875 -10.859375 4.710938 -10.820312 4.578125 -10.75 C 4.453125 -10.675781 4.363281 -10.539062 4.3125 -10.34375 C 4.257812 -10.15625 4.234375 -9.875 4.234375 -9.5 L 4.234375 -5.625 L 4.90625 -5.625 C 5.769531 -5.625 6.363281 -5.847656 6.6875 -6.296875 C 7.007812 -6.753906 7.171875 -7.398438 7.171875 -8.234375 C 7.171875 -9.097656 7.015625 -9.75 6.703125 -10.1875 C 6.398438 -10.632812 5.898438 -10.859375 5.203125 -10.859375 Z M 5.203125 -10.859375 "/></g></g></g><g fill="#060606" fill-opacity="1"><g transform="translate(114.818307, 34.777451)"><g><path d="M 5.015625 -1.078125 C 5.878906 -1.078125 6.570312 -1.492188 7.09375 -2.328125 L 7.390625 -2.234375 C 7.171875 -1.554688 6.789062 -0.976562 6.25 -0.5 C 5.707031 -0.0195312 5.035156 0.21875 4.234375 0.21875 C 3.117188 0.21875 2.226562 -0.132812 1.5625 -0.84375 C 0.90625 -1.550781 0.578125 -2.601562 0.578125 -4 C 0.578125 -5.414062 0.929688 -6.5 1.640625 -7.25 C 2.347656 -8 3.285156 -8.375 4.453125 -8.375 C 6.429688 -8.375 7.421875 -7.207031 7.421875 -4.875 L 2.984375 -4.875 C 2.972656 -4.71875 2.96875 -4.472656 2.96875 -4.140625 C 2.96875 -3.441406 3.0625 -2.859375 3.25 -2.390625 C 3.445312 -1.929688 3.703125 -1.597656 4.015625 -1.390625 C 4.328125 -1.179688 4.660156 -1.078125 5.015625 -1.078125 Z M 4.359375 -8.046875 C 3.972656 -8.046875 3.65625 -7.8125 3.40625 -7.34375 C 3.164062 -6.875 3.015625 -6.148438 2.953125 -5.171875 L 5.421875 -5.171875 C 5.441406 -6.003906 5.359375 -6.691406 5.171875 -7.234375 C 4.992188 -7.773438 4.722656 -8.046875 4.359375 -8.046875 Z M 4.359375 -8.046875 "/></g></g></g><g fill="#060606" fill-opacity="1"><g transform="translate(122.296034, 34.777451)"><g><path d="M 3.5 -8.375 C 3.90625 -8.375 4.273438 -8.320312 4.609375 -8.21875 C 4.941406 -8.125 5.195312 -8.015625 5.375 -7.890625 C 5.488281 -7.816406 5.585938 -7.78125 5.671875 -7.78125 C 5.765625 -7.78125 5.84375 -7.828125 5.90625 -7.921875 C 5.976562 -8.023438 6.023438 -8.171875 6.046875 -8.359375 L 6.375 -8.359375 C 6.332031 -7.828125 6.3125 -6.90625 6.3125 -5.59375 L 5.984375 -5.59375 C 5.890625 -6.28125 5.679688 -6.859375 5.359375 -7.328125 C 5.035156 -7.796875 4.570312 -8.03125 3.96875 -8.03125 C 3.644531 -8.03125 3.378906 -7.941406 3.171875 -7.765625 C 2.972656 -7.585938 2.875 -7.335938 2.875 -7.015625 C 2.875 -6.660156 2.992188 -6.351562 3.234375 -6.09375 C 3.472656 -5.84375 3.851562 -5.53125 4.375 -5.15625 L 4.828125 -4.828125 C 5.472656 -4.347656 5.945312 -3.914062 6.25 -3.53125 C 6.550781 -3.15625 6.703125 -2.679688 6.703125 -2.109375 C 6.703125 -1.648438 6.566406 -1.238281 6.296875 -0.875 C 6.035156 -0.519531 5.675781 -0.25 5.21875 -0.0625 C 4.769531 0.125 4.269531 0.21875 3.71875 0.21875 C 3.144531 0.21875 2.648438 0.109375 2.234375 -0.109375 C 1.898438 -0.273438 1.660156 -0.382812 1.515625 -0.4375 C 1.410156 -0.46875 1.316406 -0.429688 1.234375 -0.328125 C 1.160156 -0.234375 1.101562 -0.0859375 1.0625 0.109375 L 0.71875 0.109375 C 0.757812 -0.484375 0.78125 -1.535156 0.78125 -3.046875 L 1.125 -3.046875 C 1.332031 -1.109375 2.039062 -0.140625 3.25 -0.140625 C 3.550781 -0.140625 3.8125 -0.226562 4.03125 -0.40625 C 4.25 -0.59375 4.359375 -0.878906 4.359375 -1.265625 C 4.359375 -1.554688 4.289062 -1.816406 4.15625 -2.046875 C 4.03125 -2.285156 3.863281 -2.492188 3.65625 -2.671875 C 3.457031 -2.847656 3.160156 -3.09375 2.765625 -3.40625 C 2.285156 -3.789062 1.921875 -4.097656 1.671875 -4.328125 C 1.429688 -4.554688 1.222656 -4.828125 1.046875 -5.140625 C 0.867188 -5.460938 0.78125 -5.816406 0.78125 -6.203125 C 0.78125 -6.878906 1.039062 -7.410156 1.5625 -7.796875 C 2.09375 -8.179688 2.738281 -8.375 3.5 -8.375 Z M 3.5 -8.375 "/></g></g></g><g fill="#060606" fill-opacity="1"><g transform="translate(129.111147, 34.777451)"><g><path d="M 4.453125 -8.375 C 5.660156 -8.375 6.601562 -8.03125 7.28125 -7.34375 C 7.96875 -6.65625 8.3125 -5.566406 8.3125 -4.078125 C 8.3125 -2.578125 7.96875 -1.484375 7.28125 -0.796875 C 6.601562 -0.117188 5.660156 0.21875 4.453125 0.21875 C 3.253906 0.21875 2.304688 -0.117188 1.609375 -0.796875 C 0.921875 -1.484375 0.578125 -2.578125 0.578125 -4.078125 C 0.578125 -5.566406 0.921875 -6.65625 1.609375 -7.34375 C 2.304688 -8.03125 3.253906 -8.375 4.453125 -8.375 Z M 4.453125 -8.0625 C 3.992188 -8.0625 3.628906 -7.734375 3.359375 -7.078125 C 3.097656 -6.421875 2.96875 -5.421875 2.96875 -4.078125 C 2.96875 -2.722656 3.097656 -1.71875 3.359375 -1.0625 C 3.628906 -0.414062 3.992188 -0.09375 4.453125 -0.09375 C 4.910156 -0.09375 5.269531 -0.414062 5.53125 -1.0625 C 5.800781 -1.707031 5.9375 -2.710938 5.9375 -4.078125 C 5.9375 -5.429688 5.800781 -6.429688 5.53125 -7.078125 C 5.257812 -7.734375 4.898438 -8.0625 4.453125 -8.0625 Z M 4.453125 -8.0625 "/></g></g></g><g fill="#060606" fill-opacity="1"><g transform="translate(137.551255, 34.777451)"><g><path d="M 8.234375 -1.71875 C 8.234375 -1.238281 8.3125 -0.882812 8.46875 -0.65625 C 8.625 -0.4375 8.882812 -0.328125 9.25 -0.328125 L 9.25 0 C 8.925781 -0.03125 8.597656 -0.046875 8.265625 -0.046875 C 7.347656 -0.046875 6.582031 0.0234375 5.96875 0.171875 L 5.96875 -1.25 C 5.476562 -0.269531 4.628906 0.21875 3.421875 0.21875 C 2.628906 0.21875 2.054688 0.015625 1.703125 -0.390625 C 1.535156 -0.585938 1.410156 -0.847656 1.328125 -1.171875 C 1.253906 -1.492188 1.21875 -1.921875 1.21875 -2.453125 L 1.21875 -6.4375 C 1.21875 -6.925781 1.140625 -7.28125 0.984375 -7.5 C 0.828125 -7.71875 0.566406 -7.828125 0.203125 -7.828125 L 0.203125 -8.15625 C 0.523438 -8.125 0.851562 -8.109375 1.1875 -8.109375 C 2.101562 -8.109375 2.867188 -8.179688 3.484375 -8.328125 L 3.484375 -1.796875 C 3.484375 -1.359375 3.546875 -1.023438 3.671875 -0.796875 C 3.804688 -0.578125 4.0625 -0.46875 4.4375 -0.46875 C 4.851562 -0.46875 5.210938 -0.644531 5.515625 -1 C 5.816406 -1.351562 5.96875 -1.785156 5.96875 -2.296875 L 5.96875 -6.4375 C 5.96875 -6.925781 5.890625 -7.28125 5.734375 -7.5 C 5.578125 -7.71875 5.316406 -7.828125 4.953125 -7.828125 L 4.953125 -8.15625 C 5.285156 -8.125 5.613281 -8.109375 5.9375 -8.109375 C 6.851562 -8.109375 7.617188 -8.179688 8.234375 -8.328125 Z M 8.234375 -1.71875 "/></g></g></g><g fill="#060606" fill-opacity="1"><g transform="translate(146.638215, 34.777451)"><g><path d="M 5.8125 -8.375 C 6.28125 -8.375 6.632812 -8.234375 6.875 -7.953125 C 7.125 -7.671875 7.25 -7.328125 7.25 -6.921875 C 7.25 -6.535156 7.132812 -6.21875 6.90625 -5.96875 C 6.675781 -5.726562 6.378906 -5.609375 6.015625 -5.609375 C 5.648438 -5.609375 5.363281 -5.695312 5.15625 -5.875 C 4.945312 -6.0625 4.84375 -6.304688 4.84375 -6.609375 C 4.84375 -7.117188 5.078125 -7.53125 5.546875 -7.84375 C 5.492188 -7.851562 5.425781 -7.859375 5.34375 -7.859375 C 5.238281 -7.859375 5.15625 -7.847656 5.09375 -7.828125 C 4.695312 -7.765625 4.359375 -7.519531 4.078125 -7.09375 C 3.796875 -6.675781 3.65625 -6.25 3.65625 -5.8125 L 3.65625 -1.625 C 3.65625 -1.144531 3.773438 -0.804688 4.015625 -0.609375 C 4.253906 -0.421875 4.628906 -0.328125 5.140625 -0.328125 L 5.140625 0 C 4.992188 0 4.875 -0.00390625 4.78125 -0.015625 C 3.707031 -0.046875 2.992188 -0.0625 2.640625 -0.0625 C 2.347656 -0.0625 1.695312 -0.046875 0.6875 -0.015625 C 0.601562 -0.00390625 0.5 0 0.375 0 L 0.375 -0.328125 C 0.757812 -0.328125 1.023438 -0.410156 1.171875 -0.578125 C 1.316406 -0.742188 1.390625 -1.039062 1.390625 -1.46875 L 1.390625 -6.4375 C 1.390625 -6.925781 1.316406 -7.28125 1.171875 -7.5 C 1.023438 -7.71875 0.757812 -7.828125 0.375 -7.828125 L 0.375 -8.15625 C 0.71875 -8.125 1.046875 -8.109375 1.359375 -8.109375 C 2.296875 -8.109375 3.0625 -8.179688 3.65625 -8.328125 L 3.65625 -6.859375 C 3.863281 -7.316406 4.15625 -7.679688 4.53125 -7.953125 C 4.90625 -8.234375 5.332031 -8.375 5.8125 -8.375 Z M 5.8125 -8.375 "/></g></g></g><g fill="#060606" fill-opacity="1"><g transform="translate(153.532211, 34.777451)"><g><path d="M 4.484375 -8.375 C 4.867188 -8.375 5.234375 -8.332031 5.578125 -8.25 C 5.929688 -8.164062 6.222656 -8.050781 6.453125 -7.90625 C 6.722656 -7.738281 6.9375 -7.523438 7.09375 -7.265625 C 7.25 -7.003906 7.328125 -6.722656 7.328125 -6.421875 C 7.328125 -6.054688 7.207031 -5.753906 6.96875 -5.515625 C 6.738281 -5.273438 6.441406 -5.15625 6.078125 -5.15625 C 5.703125 -5.15625 5.40625 -5.257812 5.1875 -5.46875 C 4.96875 -5.6875 4.859375 -5.972656 4.859375 -6.328125 C 4.859375 -6.640625 4.957031 -6.910156 5.15625 -7.140625 C 5.351562 -7.378906 5.601562 -7.539062 5.90625 -7.625 C 5.820312 -7.738281 5.691406 -7.828125 5.515625 -7.890625 C 5.335938 -7.960938 5.148438 -8 4.953125 -8 C 4.328125 -8 3.835938 -7.65625 3.484375 -6.96875 C 3.128906 -6.28125 2.953125 -5.378906 2.953125 -4.265625 C 2.953125 -3.140625 3.148438 -2.328125 3.546875 -1.828125 C 3.953125 -1.335938 4.453125 -1.09375 5.046875 -1.09375 C 5.410156 -1.09375 5.769531 -1.1875 6.125 -1.375 C 6.488281 -1.5625 6.820312 -1.890625 7.125 -2.359375 L 7.390625 -2.265625 C 7.171875 -1.585938 6.796875 -1.003906 6.265625 -0.515625 C 5.742188 -0.0234375 5.070312 0.21875 4.25 0.21875 C 3.164062 0.21875 2.28125 -0.132812 1.59375 -0.84375 C 0.90625 -1.5625 0.5625 -2.628906 0.5625 -4.046875 C 0.5625 -4.960938 0.726562 -5.75 1.0625 -6.40625 C 1.40625 -7.0625 1.867188 -7.550781 2.453125 -7.875 C 3.046875 -8.207031 3.722656 -8.375 4.484375 -8.375 Z M 4.484375 -8.375 "/></g></g></g><g fill="#060606" fill-opacity="1"><g transform="translate(160.883737, 34.777451)"><g><path d="M 5.015625 -1.078125 C 5.878906 -1.078125 6.570312 -1.492188 7.09375 -2.328125 L 7.390625 -2.234375 C 7.171875 -1.554688 6.789062 -0.976562 6.25 -0.5 C 5.707031 -0.0195312 5.035156 0.21875 4.234375 0.21875 C 3.117188 0.21875 2.226562 -0.132812 1.5625 -0.84375 C 0.90625 -1.550781 0.578125 -2.601562 0.578125 -4 C 0.578125 -5.414062 0.929688 -6.5 1.640625 -7.25 C 2.347656 -8 3.285156 -8.375 4.453125 -8.375 C 6.429688 -8.375 7.421875 -7.207031 7.421875 -4.875 L 2.984375 -4.875 C 2.972656 -4.71875 2.96875 -4.472656 2.96875 -4.140625 C 2.96875 -3.441406 3.0625 -2.859375 3.25 -2.390625 C 3.445312 -1.929688 3.703125 -1.597656 4.015625 -1.390625 C 4.328125 -1.179688 4.660156 -1.078125 5.015625 -1.078125 Z M 4.359375 -8.046875 C 3.972656 -8.046875 3.65625 -7.8125 3.40625 -7.34375 C 3.164062 -6.875 3.015625 -6.148438 2.953125 -5.171875 L 5.421875 -5.171875 C 5.441406 -6.003906 5.359375 -6.691406 5.171875 -7.234375 C 4.992188 -7.773438 4.722656 -8.046875 4.359375 -8.046875 Z M 4.359375 -8.046875 "/></g></g></g><g fill="#060606" fill-opacity="1"><g transform="translate(168.36147, 34.777451)"><g><path d="M 3.5 -8.375 C 3.90625 -8.375 4.273438 -8.320312 4.609375 -8.21875 C 4.941406 -8.125 5.195312 -8.015625 5.375 -7.890625 C 5.488281 -7.816406 5.585938 -7.78125 5.671875 -7.78125 C 5.765625 -7.78125 5.84375 -7.828125 5.90625 -7.921875 C 5.976562 -8.023438 6.023438 -8.171875 6.046875 -8.359375 L 6.375 -8.359375 C 6.332031 -7.828125 6.3125 -6.90625 6.3125 -5.59375 L 5.984375 -5.59375 C 5.890625 -6.28125 5.679688 -6.859375 5.359375 -7.328125 C 5.035156 -7.796875 4.570312 -8.03125 3.96875 -8.03125 C 3.644531 -8.03125 3.378906 -7.941406 3.171875 -7.765625 C 2.972656 -7.585938 2.875 -7.335938 2.875 -7.015625 C 2.875 -6.660156 2.992188 -6.351562 3.234375 -6.09375 C 3.472656 -5.84375 3.851562 -5.53125 4.375 -5.15625 L 4.828125 -4.828125 C 5.472656 -4.347656 5.945312 -3.914062 6.25 -3.53125 C 6.550781 -3.15625 6.703125 -2.679688 6.703125 -2.109375 C 6.703125 -1.648438 6.566406 -1.238281 6.296875 -0.875 C 6.035156 -0.519531 5.675781 -0.25 5.21875 -0.0625 C 4.769531 0.125 4.269531 0.21875 3.71875 0.21875 C 3.144531 0.21875 2.648438 0.109375 2.234375 -0.109375 C 1.898438 -0.273438 1.660156 -0.382812 1.515625 -0.4375 C 1.410156 -0.46875 1.316406 -0.429688 1.234375 -0.328125 C 1.160156 -0.234375 1.101562 -0.0859375 1.0625 0.109375 L 0.71875 0.109375 C 0.757812 -0.484375 0.78125 -1.535156 0.78125 -3.046875 L 1.125 -3.046875 C 1.332031 -1.109375 2.039062 -0.140625 3.25 -0.140625 C 3.550781 -0.140625 3.8125 -0.226562 4.03125 -0.40625 C 4.25 -0.59375 4.359375 -0.878906 4.359375 -1.265625 C 4.359375 -1.554688 4.289062 -1.816406 4.15625 -2.046875 C 4.03125 -2.285156 3.863281 -2.492188 3.65625 -2.671875 C 3.457031 -2.847656 3.160156 -3.09375 2.765625 -3.40625 C 2.285156 -3.789062 1.921875 -4.097656 1.671875 -4.328125 C 1.429688 -4.554688 1.222656 -4.828125 1.046875 -5.140625 C 0.867188 -5.460938 0.78125 -5.816406 0.78125 -6.203125 C 0.78125 -6.878906 1.039062 -7.410156 1.5625 -7.796875 C 2.09375 -8.179688 2.738281 -8.375 3.5 -8.375 Z M 3.5 -8.375 "/></g></g></g><g clip-path="url(#07cc8f6c72)"><path fill="#fbfaf9" d="M 86.394531 44.214844 L 138.804688 44.214844 L 138.804688 49.460938 L 86.394531 49.460938 L 86.394531 44.214844 " fill-opacity="1" fill-rule="nonzero"/></g><g fill="#060606" fill-opacity="1"><g transform="translate(70.237985, 52.326533)"><g><path d="M 3.046875 -5.3125 C 3.410156 -5.3125 3.769531 -5.238281 4.125 -5.09375 C 4.488281 -4.957031 4.796875 -4.757812 5.046875 -4.5 L 4.53125 -3.84375 C 4.34375 -4.050781 4.113281 -4.210938 3.84375 -4.328125 C 3.582031 -4.453125 3.320312 -4.515625 3.0625 -4.515625 C 2.53125 -4.515625 2.082031 -4.332031 1.71875 -3.96875 C 1.351562 -3.613281 1.171875 -3.175781 1.171875 -2.65625 C 1.171875 -2.132812 1.351562 -1.691406 1.71875 -1.328125 C 2.082031 -0.972656 2.53125 -0.796875 3.0625 -0.796875 C 3.601562 -0.796875 4.09375 -1.003906 4.53125 -1.421875 L 5.0625 -0.828125 C 4.789062 -0.566406 4.472656 -0.359375 4.109375 -0.203125 C 3.742188 -0.046875 3.378906 0.03125 3.015625 0.03125 C 2.234375 0.03125 1.578125 -0.222656 1.046875 -0.734375 C 0.515625 -1.253906 0.25 -1.894531 0.25 -2.65625 C 0.25 -3.40625 0.519531 -4.035156 1.0625 -4.546875 C 1.601562 -5.054688 2.265625 -5.3125 3.046875 -5.3125 Z M 3.046875 -5.3125 "/></g></g></g><g fill="#060606" fill-opacity="1"><g transform="translate(79.668172, 52.326533)"><g><path d="M 4.109375 -1.1875 L 1.4375 -1.1875 L 0.9375 0 L 0 0 L 2.34375 -5.296875 L 3.265625 -5.296875 L 5.578125 0 L 4.625 0 Z M 3.78125 -1.984375 L 2.78125 -4.34375 L 1.78125 -1.984375 Z M 3.78125 -1.984375 "/></g></g></g><g fill="#060606" fill-opacity="1"><g transform="translate(89.408415, 52.326533)"><g><path d="M 1.59375 -0.8125 L 3.875 -0.8125 L 3.875 0 L 0.703125 0 L 0.703125 -5.296875 L 1.59375 -5.296875 Z M 1.59375 -0.8125 "/></g></g></g><g fill="#060606" fill-opacity="1"><g transform="translate(97.605947, 52.326533)"><g><path d="M 1.59375 0 L 0.703125 0 L 0.703125 -5.296875 L 1.59375 -5.296875 Z M 1.59375 0 "/></g></g></g><g fill="#060606" fill-opacity="1"><g transform="translate(104.049014, 52.326533)"><g><path d="M 4.25 -4.484375 L 1.59375 -4.484375 L 1.59375 -2.96875 L 4 -2.96875 L 4 -2.171875 L 1.59375 -2.171875 L 1.59375 0 L 0.703125 0 L 0.703125 -5.296875 L 4.25 -5.296875 Z M 4.25 -4.484375 "/></g></g></g><g fill="#060606" fill-opacity="1"><g transform="translate(112.5566, 52.326533)"><g><path d="M 1.0625 -4.546875 C 1.601562 -5.054688 2.269531 -5.3125 3.0625 -5.3125 C 3.851562 -5.3125 4.519531 -5.054688 5.0625 -4.546875 C 5.601562 -4.035156 5.875 -3.398438 5.875 -2.640625 C 5.875 -1.890625 5.601562 -1.253906 5.0625 -0.734375 C 4.519531 -0.222656 3.851562 0.03125 3.0625 0.03125 C 2.269531 0.03125 1.601562 -0.222656 1.0625 -0.734375 C 0.519531 -1.253906 0.25 -1.890625 0.25 -2.640625 C 0.25 -3.398438 0.519531 -4.035156 1.0625 -4.546875 Z M 3.078125 -4.515625 C 2.546875 -4.515625 2.09375 -4.332031 1.71875 -3.96875 C 1.351562 -3.613281 1.171875 -3.171875 1.171875 -2.640625 C 1.171875 -2.117188 1.359375 -1.675781 1.734375 -1.3125 C 2.109375 -0.945312 2.550781 -0.765625 3.0625 -0.765625 C 3.582031 -0.765625 4.023438 -0.945312 4.390625 -1.3125 C 4.765625 -1.675781 4.953125 -2.117188 4.953125 -2.640625 C 4.953125 -3.171875 4.765625 -3.613281 4.390625 -3.96875 C 4.023438 -4.332031 3.585938 -4.515625 3.078125 -4.515625 Z M 3.078125 -4.515625 "/></g></g></g><g fill="#060606" fill-opacity="1"><g transform="translate(122.841324, 52.326533)"><g><path d="M 4.046875 0 L 3.078125 -1.609375 C 3.035156 -1.597656 2.957031 -1.59375 2.84375 -1.59375 L 1.59375 -1.59375 L 1.59375 0 L 0.703125 0 L 0.703125 -5.296875 L 2.84375 -5.296875 C 3.519531 -5.296875 4.039062 -5.132812 4.40625 -4.8125 C 4.78125 -4.5 4.96875 -4.054688 4.96875 -3.484375 C 4.96875 -3.054688 4.875 -2.695312 4.6875 -2.40625 C 4.5 -2.113281 4.226562 -1.898438 3.875 -1.765625 L 5.0625 0 Z M 1.59375 -2.390625 L 2.84375 -2.390625 C 3.695312 -2.390625 4.125 -2.75 4.125 -3.46875 C 4.125 -4.144531 3.695312 -4.484375 2.84375 -4.484375 L 1.59375 -4.484375 Z M 1.59375 -2.390625 "/></g></g></g><g fill="#060606" fill-opacity="1"><g transform="translate(132.468127, 52.326533)"><g><path d="M 5.28125 0 L 4.40625 0 L 1.59375 -3.796875 L 1.59375 0 L 0.703125 0 L 0.703125 -5.296875 L 1.578125 -5.296875 L 4.40625 -1.484375 L 4.40625 -5.296875 L 5.28125 -5.296875 Z M 5.28125 0 "/></g></g></g><g fill="#060606" fill-opacity="1"><g transform="translate(142.616737, 52.326533)"><g><path d="M 1.59375 0 L 0.703125 0 L 0.703125 -5.296875 L 1.59375 -5.296875 Z M 1.59375 0 "/></g></g></g><g fill="#060606" fill-opacity="1"><g transform="translate(149.059804, 52.326533)"><g><path d="M 4.109375 -1.1875 L 1.4375 -1.1875 L 0.9375 0 L 0 0 L 2.34375 -5.296875 L 3.265625 -5.296875 L 5.578125 0 L 4.625 0 Z M 3.78125 -1.984375 L 2.78125 -4.34375 L 1.78125 -1.984375 Z M 3.78125 -1.984375 "/></g></g></g></svg>